<svg width="39" height="44" viewBox="0 0 39 44" fill="none" xmlns="http://www.w3.org/2000/svg">
<path d="M37.9195 18.4441C37.8141 18.4441 37.7094 18.4262 37.6095 18.3912L25.8503 14.2838C25.727 14.2422 25.6128 14.1754 25.5144 14.0873C25.4159 13.9991 25.3351 13.8914 25.2766 13.7703C25.2181 13.6492 25.183 13.5172 25.1735 13.3819C25.164 13.2465 25.1802 13.1105 25.2212 12.9818C25.2621 12.8531 25.327 12.7341 25.4121 12.6318C25.4972 12.5295 25.6008 12.4459 25.717 12.3858C25.8331 12.3257 25.9594 12.2903 26.0887 12.2817C26.2179 12.2731 26.3475 12.2914 26.47 12.3356L38.2292 16.443C38.45 16.52 38.6375 16.6769 38.7581 16.8855C38.8786 17.0941 38.9243 17.3409 38.8871 17.5817C38.8498 17.8224 38.732 18.0414 38.5547 18.1994C38.3775 18.3575 38.1523 18.4442 37.9195 18.4441Z" fill="#000648"/>
<path d="M25.5544 22.629C25.3105 22.629 25.0746 22.5423 24.8888 22.3842C24.7031 22.2262 24.5796 22.0072 24.5406 21.7665C24.5015 21.5257 24.5495 21.279 24.6758 21.0703C24.8021 20.8617 24.9985 20.7048 25.23 20.6278L37.552 16.5205C37.6803 16.4763 37.8161 16.4579 37.9516 16.4665C38.087 16.4752 38.2194 16.5105 38.3411 16.5706C38.4628 16.6307 38.5713 16.7143 38.6605 16.8166C38.7497 16.9189 38.8177 17.0379 38.8606 17.1666C38.9035 17.2954 38.9205 17.4313 38.9105 17.5667C38.9005 17.702 38.8639 17.834 38.8026 17.9551C38.7413 18.0762 38.6566 18.1839 38.5534 18.2721C38.4502 18.3602 38.3306 18.427 38.2014 18.4687L25.8793 22.576C25.7746 22.611 25.6649 22.6289 25.5544 22.629V22.629Z" fill="#000648"/>
<path d="M37.8755 34.9505C37.6031 34.9505 37.342 34.8423 37.1494 34.6498C36.9568 34.4572 36.8486 34.196 36.8486 33.9237V17.4942C36.8486 17.2219 36.9568 16.9607 37.1494 16.7682C37.342 16.5756 37.6031 16.4674 37.8755 16.4674C38.1478 16.4674 38.409 16.5756 38.6016 16.7682C38.7941 16.9607 38.9023 17.2219 38.9023 17.4942V33.9237C38.9023 34.196 38.7941 34.4572 38.6016 34.6498C38.409 34.8423 38.1478 34.9505 37.8755 34.9505V34.9505Z" fill="#000648"/>
<path d="M25.5542 39.0584C25.2818 39.0584 25.0207 38.9502 24.8281 38.7577C24.6355 38.5651 24.5273 38.3039 24.5273 38.0316V21.6022C24.5273 21.3298 24.6355 21.0686 24.8281 20.8761C25.0207 20.6835 25.2818 20.5753 25.5542 20.5753C25.8265 20.5753 26.0877 20.6835 26.2803 20.8761C26.4728 21.0686 26.581 21.3298 26.581 21.6022V38.0316C26.581 38.3039 26.4728 38.5651 26.2803 38.7577C26.0877 38.9502 25.8265 39.0584 25.5542 39.0584V39.0584Z" fill="#000648"/>
<path d="M25.5544 39.058C25.3105 39.0581 25.0746 38.9713 24.8888 38.8133C24.7031 38.6553 24.5796 38.4363 24.5406 38.1955C24.5015 37.9548 24.5495 37.708 24.6758 37.4994C24.8021 37.2908 24.9985 37.1339 25.23 37.0569L37.552 32.9495C37.8095 32.8665 38.0894 32.8885 38.3308 33.0107C38.5722 33.1329 38.7556 33.3455 38.8411 33.6022C38.9267 33.8588 38.9075 34.1389 38.7877 34.3815C38.6679 34.6241 38.4572 34.8096 38.2014 34.8977L25.8793 39.0051C25.7746 39.0401 25.6649 39.058 25.5544 39.058V39.058Z" fill="#000648"/>
<path d="M25.6723 6.16448C25.5619 6.16444 25.4522 6.14656 25.3474 6.11154L13.0254 2.00418C12.8962 1.96256 12.7766 1.89574 12.6734 1.80759C12.5702 1.71945 12.4855 1.61172 12.4242 1.49065C12.3629 1.36957 12.3262 1.23754 12.3162 1.1022C12.3063 0.966857 12.3233 0.830882 12.3662 0.702136C12.4091 0.57339 12.4771 0.454429 12.5663 0.352128C12.6554 0.249827 12.764 0.166216 12.8857 0.10613C13.0074 0.0460447 13.1397 0.0106757 13.2752 0.00206777C13.4106 -0.00654017 13.5464 0.011784 13.6747 0.0559809L25.9968 4.16334C26.2282 4.24035 26.4247 4.39721 26.551 4.60584C26.6773 4.81447 26.7252 5.06125 26.6862 5.302C26.6471 5.54274 26.5237 5.76173 26.3379 5.91976C26.1522 6.07779 25.9162 6.16454 25.6723 6.16448V6.16448Z" fill="#000648"/>
<path d="M1.02709 6.16471C0.783202 6.16477 0.547255 6.07802 0.361491 5.91999C0.175727 5.76196 0.0522767 5.54297 0.0132406 5.30223C-0.0257955 5.06148 0.0221314 4.8147 0.148442 4.60607C0.274752 4.39744 0.471198 4.24058 0.702609 4.16357L13.0247 0.0562111C13.2822 -0.0267764 13.5621 -0.00477605 13.8034 0.117431C14.0448 0.239638 14.2282 0.452176 14.3138 0.708851C14.3993 0.965527 14.3801 1.2456 14.2603 1.48819C14.1406 1.73079 13.9299 1.9163 13.6741 2.00441L1.35198 6.11177C1.24724 6.14679 1.13753 6.16467 1.02709 6.16471Z" fill="#000648"/>
<path d="M13.3521 10.2719C13.2416 10.2718 13.1319 10.254 13.0272 10.2189L0.705121 6.11159C0.449313 6.02348 0.238618 5.83796 0.118827 5.59537C-0.000963985 5.35277 -0.0201688 5.0727 0.0653861 4.81603C0.150941 4.55935 0.334341 4.34682 0.575727 4.22461C0.817114 4.1024 1.09698 4.0804 1.35449 4.16339L13.6766 8.27075C13.908 8.34776 14.1044 8.50462 14.2307 8.71325C14.357 8.92188 14.405 9.16866 14.3659 9.4094C14.3269 9.65015 14.2034 9.86914 14.0177 10.0272C13.8319 10.1852 13.596 10.2719 13.3521 10.2719V10.2719Z" fill="#000648"/>
<path d="M13.3503 10.2714C13.1064 10.2715 12.8705 10.1847 12.6847 10.0267C12.499 9.86866 12.3755 9.64967 12.3365 9.40893C12.2974 9.16818 12.3454 8.92141 12.4717 8.71277C12.598 8.50414 12.7944 8.34728 13.0259 8.27027L25.3479 4.16291C25.4762 4.11872 25.612 4.10039 25.7475 4.109C25.8829 4.11761 26.0153 4.15298 26.137 4.21306C26.2587 4.27315 26.3672 4.35676 26.4564 4.45906C26.5456 4.56136 26.6136 4.68032 26.6565 4.80907C26.6994 4.93782 26.7164 5.07379 26.7064 5.20913C26.6964 5.34448 26.6598 5.4765 26.5985 5.59758C26.5372 5.71866 26.4525 5.82638 26.3493 5.91453C26.2461 6.00267 26.1265 6.06949 25.9973 6.11112L13.6752 10.2185C13.5705 10.2535 13.4608 10.2714 13.3503 10.2714V10.2714Z" fill="#000648"/>
<path d="M25.6723 22.5939C25.4 22.5939 25.1388 22.4858 24.9463 22.2932C24.7537 22.1006 24.6455 21.8394 24.6455 21.5671V5.13768C24.6455 4.86534 24.7537 4.60416 24.9463 4.41159C25.1388 4.21902 25.4 4.11084 25.6723 4.11084C25.9447 4.11084 26.2059 4.21902 26.3984 4.41159C26.591 4.60416 26.6992 4.86534 26.6992 5.13768V21.5671C26.6992 21.8394 26.591 22.1006 26.3984 22.2932C26.2059 22.4858 25.9447 22.5939 25.6723 22.5939V22.5939Z" fill="#000648"/>
<path d="M13.3501 26.7009C13.0777 26.7009 12.8166 26.5927 12.624 26.4001C12.4314 26.2076 12.3232 25.9464 12.3232 25.674V9.24461C12.3232 8.97228 12.4314 8.7111 12.624 8.51853C12.8166 8.32596 13.0777 8.21777 13.3501 8.21777C13.6224 8.21777 13.8836 8.32596 14.0762 8.51853C14.2687 8.7111 14.3769 8.97228 14.3769 9.24461V25.674C14.3769 25.9464 14.2687 26.2076 14.0762 26.4001C13.8836 26.5927 13.6224 26.7009 13.3501 26.7009V26.7009Z" fill="#000648"/>
<path d="M1.02684 22.5939C0.754504 22.5939 0.493324 22.4858 0.300754 22.2932C0.108185 22.1006 0 21.8394 0 21.5671V5.13768C0 4.86534 0.108185 4.60416 0.300754 4.41159C0.493324 4.21902 0.754504 4.11084 1.02684 4.11084C1.29917 4.11084 1.56035 4.21902 1.75292 4.41159C1.94549 4.60416 2.05368 4.86534 2.05368 5.13768V21.5671C2.05368 21.8394 1.94549 22.1006 1.75292 22.2932C1.56035 22.4858 1.29917 22.5939 1.02684 22.5939V22.5939Z" fill="#000648"/>
<path d="M13.3503 26.7015C13.1064 26.7015 12.8705 26.6148 12.6847 26.4567C12.499 26.2987 12.3755 26.0797 12.3365 25.839C12.2974 25.5982 12.3454 25.3514 12.4717 25.1428C12.598 24.9342 12.7944 24.7773 13.0259 24.7003L25.3479 20.593C25.6054 20.51 25.8853 20.532 26.1267 20.6542C26.3681 20.7764 26.5515 20.9889 26.637 21.2456C26.7226 21.5023 26.7034 21.7823 26.5836 22.0249C26.4638 22.2675 26.2531 22.453 25.9973 22.5412L13.6752 26.6485C13.5705 26.6835 13.4608 26.7014 13.3503 26.7015V26.7015Z" fill="#000648"/>
<path d="M13.3521 26.7015C13.2416 26.7014 13.1319 26.6835 13.0272 26.6485L0.705121 22.5412C0.449313 22.453 0.238618 22.2675 0.118827 22.0249C-0.000963985 21.7823 -0.0201688 21.5023 0.0653861 21.2456C0.150941 20.9889 0.334341 20.7764 0.575727 20.6542C0.817114 20.532 1.09698 20.51 1.35449 20.593L13.6766 24.7003C13.908 24.7773 14.1044 24.9342 14.2307 25.1428C14.357 25.3514 14.405 25.5982 14.3659 25.839C14.3269 26.0797 14.2034 26.2987 14.0177 26.4567C13.8319 26.6148 13.596 26.7015 13.3521 26.7015V26.7015Z" fill="#000648"/>
<path d="M13.3521 26.6695C13.2416 26.6694 13.1319 26.6516 13.0272 26.6165L0.705121 22.5092C0.449313 22.4211 0.238618 22.2355 0.118827 21.993C-0.000963985 21.7504 -0.0201688 21.4703 0.0653861 21.2136C0.150941 20.9569 0.334341 20.7444 0.575727 20.6222C0.817114 20.5 1.09698 20.478 1.35449 20.561L13.6766 24.6683C13.908 24.7453 14.1044 24.9022 14.2307 25.1108C14.357 25.3195 14.405 25.5662 14.3659 25.807C14.3269 26.0477 14.2034 26.2667 14.0177 26.4248C13.8319 26.5828 13.596 26.6695 13.3521 26.6695V26.6695Z" fill="#000648"/>
<path d="M13.3503 26.669C13.1064 26.6691 12.8705 26.5823 12.6847 26.4243C12.499 26.2662 12.3755 26.0473 12.3365 25.8065C12.2974 25.5658 12.3454 25.319 12.4717 25.1104C12.598 24.9017 12.7944 24.7449 13.0259 24.6679L25.3479 20.5605C25.4762 20.5163 25.612 20.498 25.7475 20.5066C25.8829 20.5152 26.0153 20.5506 26.137 20.6106C26.2587 20.6707 26.3672 20.7543 26.4564 20.8566C26.5456 20.9589 26.6136 21.0779 26.6565 21.2067C26.6994 21.3354 26.7164 21.4714 26.7064 21.6067C26.6964 21.7421 26.6598 21.8741 26.5985 21.9952C26.5372 22.1162 26.4525 22.224 26.3493 22.3121C26.2461 22.4003 26.1265 22.4671 25.9973 22.5087L13.6752 26.6161C13.5705 26.6511 13.4608 26.669 13.3503 26.669V26.669Z" fill="#000648"/>
<path d="M25.6733 38.9915C25.401 38.9915 25.1398 38.8833 24.9472 38.6908C24.7547 38.4982 24.6465 38.237 24.6465 37.9647V21.5353C24.6465 21.2629 24.7547 21.0017 24.9472 20.8092C25.1398 20.6166 25.401 20.5084 25.6733 20.5084C25.9457 20.5084 26.2068 20.6166 26.3994 20.8092C26.592 21.0017 26.7002 21.2629 26.7002 21.5353V37.9647C26.7002 38.237 26.592 38.4982 26.3994 38.6908C26.2068 38.8833 25.9457 38.9915 25.6733 38.9915V38.9915Z" fill="#000648"/>
<path d="M13.3501 43.0985C13.0777 43.0985 12.8166 42.9903 12.624 42.7977C12.4314 42.6051 12.3232 42.344 12.3232 42.0716V25.6422C12.3232 25.3699 12.4314 25.1087 12.624 24.9161C12.8166 24.7235 13.0777 24.6154 13.3501 24.6154C13.6224 24.6154 13.8836 24.7235 14.0762 24.9161C14.2687 25.1087 14.3769 25.3699 14.3769 25.6422V42.0716C14.3769 42.344 14.2687 42.6051 14.0762 42.7977C13.8836 42.9903 13.6224 43.0985 13.3501 43.0985V43.0985Z" fill="#000648"/>
<path d="M1.02782 38.9915C0.755481 38.9915 0.4943 38.8833 0.301731 38.6908C0.109161 38.4982 0.000976562 38.237 0.000976562 37.9647V21.5353C0.000976562 21.2629 0.109161 21.0017 0.301731 20.8092C0.4943 20.6166 0.755481 20.5084 1.02782 20.5084C1.30015 20.5084 1.56133 20.6166 1.7539 20.8092C1.94647 21.0017 2.05465 21.2629 2.05465 21.5353V37.9647C2.05465 38.237 1.94647 38.4982 1.7539 38.6908C1.56133 38.8833 1.30015 38.9915 1.02782 38.9915V38.9915Z" fill="#000648"/>
<path d="M13.3503 43.099C13.1064 43.0991 12.8705 43.0123 12.6847 42.8543C12.499 42.6963 12.3755 42.4773 12.3365 42.2366C12.2974 41.9958 12.3454 41.749 12.4717 41.5404C12.598 41.3318 12.7944 41.1749 13.0259 41.0979L25.3479 36.9905C25.6054 36.9076 25.8853 36.9295 26.1267 37.0518C26.3681 37.174 26.5515 37.3865 26.637 37.6432C26.7226 37.8999 26.7034 38.1799 26.5836 38.4225C26.4638 38.6651 26.2531 38.8506 25.9973 38.9387L13.6752 43.0461C13.5705 43.0811 13.4608 43.099 13.3503 43.099V43.099Z" fill="#000648"/>
<path d="M13.3521 43.099C13.2416 43.099 13.1319 43.0811 13.0272 43.0461L0.705121 38.9387C0.449313 38.8506 0.238618 38.6651 0.118827 38.4225C-0.000963985 38.1799 -0.0201688 37.8999 0.0653861 37.6432C0.150941 37.3865 0.334341 37.174 0.575727 37.0518C0.817114 36.9295 1.09698 36.9076 1.35449 36.9905L13.6766 41.0979C13.908 41.1749 14.1044 41.3318 14.2307 41.5404C14.357 41.749 14.405 41.9958 14.3659 42.2366C14.3269 42.4773 14.2034 42.6963 14.0177 42.8543C13.8319 43.0123 13.596 43.0991 13.3521 43.099V43.099Z" fill="#000648"/>
</svg>
