<svg xmlns="http://www.w3.org/2000/svg" viewBox="0 0 210.87 211.11"><defs><style>.cls-1{isolation:isolate;}.cls-2{fill:#ffffff;}</style></defs><g id="Calque_2" data-name="Calque 2"><g id="Calque_1-2" data-name="Calque 1"><g id="Calque_2-2" data-name="Calque 2-2"><g class="cls-1"><path class="cls-2" d="M82.88,2.34,88,1.45c2.46-.42,4.2.81,4.5,2.57A2.67,2.67,0,0,1,92,6.16a2.62,2.62,0,0,1-.73.68,3.48,3.48,0,0,1,1.24.4A3,3,0,0,1,94.1,9.43c.33,1.91-1,3.78-3.6,4.23L85,14.6Zm5.8,3.87a1.25,1.25,0,1,0-.42-2.45l-2.37.41.42,2.45Zm1.25,5.2a1.52,1.52,0,1,0-.51-3l-2.71.47.51,3Z"/></g><g class="cls-1"><path class="cls-2" d="M99.06.25l3-.13,5.33,12.16-2.83.13-1.19-2.78-4.77.21-.93,2.88-2.83.13Zm3.33,7-1.65-4h-.07L99.39,7.42Z"/></g><g class="cls-1"><path class="cls-2" d="M109.8,0l4.51.41a6.27,6.27,0,0,1,6,6.78,6.28,6.28,0,0,1-7.11,5.61l-4.52-.41Zm3.62,10.32A3.67,3.67,0,0,0,117.56,7a3.67,3.67,0,0,0-3.47-4.07l-1.86-.16-.67,7.43Z"/></g><g class="cls-1"><path class="cls-2" d="M127.24,2.29l3,.66,2,13.19-2.78-.62-.41-3-4.69-1L122.61,14l-2.78-.62ZM128.61,10l-.54-4.32H128l-2.33,3.66Z"/></g><g class="cls-1"><path class="cls-2" d="M135,13.6a3.12,3.12,0,0,0,.49.89,3.73,3.73,0,0,0,1.81,1.34c1.33.48,2.12.11,2.39-.64.71-2-5.44-3.19-4-7.26.65-1.83,2.8-2.85,5.47-1.89a5.94,5.94,0,0,1,2.65,1.85,5.5,5.5,0,0,1,.7,1.13l-2.26,1.07a5,5,0,0,0-.41-.71,3.11,3.11,0,0,0-1.4-1.06c-1.27-.46-1.93-.13-2.17.54-.71,2,5.44,3.18,4,7.25-.68,1.92-2.94,3-5.69,2A6.69,6.69,0,0,1,133.54,16a4.92,4.92,0,0,1-.79-1.32Z"/></g><g class="cls-1"><path class="cls-2" d="M144.72,17.33a3.61,3.61,0,0,0,.39.94,3.79,3.79,0,0,0,1.66,1.53c1.27.62,2.1.33,2.45-.38.92-1.9-5.06-3.76-3.18-7.64.85-1.76,3.1-2.53,5.65-1.3a5.75,5.75,0,0,1,3,3.33l-2.37.82a4.5,4.5,0,0,0-.33-.75,3.08,3.08,0,0,0-1.28-1.21c-1.21-.59-1.9-.33-2.21.3-.92,1.9,5.06,3.76,3.18,7.65-.89,1.83-3.26,2.65-5.88,1.37A6.7,6.7,0,0,1,143,19.55a4.6,4.6,0,0,1-.64-1.4Z"/></g><g class="cls-1"><path class="cls-2" d="M160.75,22.55a2.2,2.2,0,1,1-3.05.62A2.19,2.19,0,0,1,160.75,22.55Z"/></g><g class="cls-1"><path class="cls-2" d="M171.89,23.6l3.92,3.45c1.85,1.63,2,3.75.82,5.08a2.64,2.64,0,0,1-2,.95,2.68,2.68,0,0,1-1-.14,3.62,3.62,0,0,1,.46,1.22,3,3,0,0,1-.72,2.56c-1.28,1.45-3.55,1.59-5.53-.15l-4.18-3.68Zm-2.61,11.13a1.51,1.51,0,1,0,2-2.26l-2-1.81-2,2.26Zm3.24-4.22a1.25,1.25,0,1,0,1.63-1.86l-1.79-1.57-1.63,1.86Z"/></g><g class="cls-1"><path class="cls-2" d="M183.71,35l2,2.26L179.52,49l-1.87-2.13,1.44-2.67-3.15-3.59-2.83,1.06-1.87-2.13Zm-3.41,7,2.1-3.79-.05,0-4,1.58Z"/></g><g class="cls-1"><path class="cls-2" d="M190.58,43.2,193.06,47a6.21,6.21,0,1,1-10.34,6.83L180.24,50Zm-5.79,9.23A3.72,3.72,0,1,0,191,48.34l-1-1.55-6.2,4.09Z"/></g><g class="cls-1"><path class="cls-2" d="M199.65,58.28,201,61l-9.07,9.69-1.23-2.55,2.08-2.19-2.08-4.3-3,.28-1.23-2.55Zm-5.14,5.83,3-3.1,0-.06-4.3.45Z"/></g><g class="cls-1"><path class="cls-2" d="M195.69,71.37a3.6,3.6,0,0,0-.4.94,3.92,3.92,0,0,0,.08,2.26c.46,1.34,1.25,1.72,2,1.46,2-.68-.9-6.24,3.19-7.63,1.84-.63,4,.41,4.89,3.09a5.88,5.88,0,0,1,.21,3.23,5.76,5.76,0,0,1-.45,1.25L203,74.87a4.35,4.35,0,0,0,.3-.75,3.07,3.07,0,0,0,0-1.77c-.43-1.27-1.1-1.59-1.77-1.36-2,.68.9,6.24-3.19,7.64-1.93.66-4.17-.44-5.12-3.21a6.7,6.7,0,0,1-.24-3.71,4.49,4.49,0,0,1,.54-1.44Z"/></g><g class="cls-1"><path class="cls-2" d="M198.85,81.3a3.84,3.84,0,0,0-.65,3.15c.31,1.39,1.05,1.86,1.83,1.68,2.06-.46-.22-6.32,4-7.28,1.91-.42,3.93.85,4.55,3.63a6,6,0,0,1-.14,3.24,6.18,6.18,0,0,1-.59,1.21l-2.12-1.35a4.48,4.48,0,0,0,.38-.72,3.06,3.06,0,0,0,.15-1.77c-.29-1.32-.93-1.7-1.62-1.55-2.07.47.22,6.33-4,7.28-2,.45-4.11-.9-4.76-3.76a6.74,6.74,0,0,1,.17-3.73,4.7,4.7,0,0,1,.69-1.38Z"/></g><g class="cls-1"><path class="cls-2" d="M204.77,97.11a2.21,2.21,0,1,1-2.4-2A2.19,2.19,0,0,1,204.77,97.11Z"/></g><g class="cls-1"><path class="cls-2" d="M210.87,106.51l-.28,5.21c-.12,2.48-1.7,3.9-3.47,3.81a2.66,2.66,0,0,1-2-1,2.92,2.92,0,0,1-.51-.86,3.27,3.27,0,0,1-.66,1.11,3,3,0,0,1-2.46,1c-1.93-.1-3.45-1.79-3.32-4.43l.29-5.56Zm-10.36,4.87a1.51,1.51,0,1,0,3,.15l.15-2.74-3-.15Zm5.32-.08a1.25,1.25,0,1,0,2.47.13l.13-2.39-2.47-.13Z"/></g><g class="cls-1"><path class="cls-2" d="M209.39,122.71l-.53,3-13,2.51.5-2.78,3-.55.84-4.7-2.59-1.55.5-2.79Zm-7.59,1.7,4.27-.73v-.07l-3.75-2.16Z"/></g><g class="cls-1"><path class="cls-2" d="M207.19,133.28l-1.4,4.3A6.2,6.2,0,1,1,194,133.74l1.4-4.3Zm-10.82,1.22a3.72,3.72,0,1,0,7.07,2.31L204,135l-7.07-2.3Z"/></g><g class="cls-1"><path class="cls-2" d="M201,149.78l-1.3,2.71-13.24-1.07,1.23-2.55,3,.27,2.07-4.3-2.09-2.19L192,140.1Zm-7.76-.4,4.3.44,0-.06-3-3.09Z"/></g><g class="cls-1"><path class="cls-2" d="M188.31,154.83a3.52,3.52,0,0,0-1,.27,3.92,3.92,0,0,0-1.72,1.46c-.77,1.19-.58,2.05.09,2.48,1.77,1.13,4.33-4.57,7.95-2.24,1.64,1,2.14,3.37.61,5.75a5.89,5.89,0,0,1-2.39,2.15,5.44,5.44,0,0,1-1.27.43l-.53-2.44a5.48,5.48,0,0,0,.79-.23,3.16,3.16,0,0,0,1.35-1.13c.72-1.13.56-1.85,0-2.23-1.77-1.14-4.32,4.57-8,2.24-1.71-1.1-2.24-3.54-.66-6a6.66,6.66,0,0,1,2.75-2.49,4.51,4.51,0,0,1,1.46-.47Z"/></g><g class="cls-1"><path class="cls-2" d="M182.55,163.44a3.25,3.25,0,0,0-1,.18,3.75,3.75,0,0,0-1.86,1.27c-.89,1.1-.8,2-.18,2.47,1.65,1.32,4.79-4.1,8.16-1.39,1.52,1.22,1.78,3.58,0,5.79a6.05,6.05,0,0,1-2.62,1.9,5.76,5.76,0,0,1-1.3.29l-.27-2.49a4.5,4.5,0,0,0,.8-.15,3.11,3.11,0,0,0,1.47-1c.84-1.05.75-1.78.2-2.22-1.65-1.32-4.79,4.1-8.16,1.39-1.59-1.27-1.86-3.76,0-6a6.72,6.72,0,0,1,3-2.19,4.62,4.62,0,0,1,1.5-.31Z"/></g><g class="cls-1"><path class="cls-2" d="M173.86,178a2.21,2.21,0,1,1,.07-3.13A2.19,2.19,0,0,1,173.86,178Z"/></g><g class="cls-1"><path class="cls-2" d="M170.33,188.6l-4.24,3c-2,1.44-4.12,1.09-5.15-.35a2.67,2.67,0,0,1-.48-2.13,2.62,2.62,0,0,1,.36-.93,3.57,3.57,0,0,1-1.29.18,3,3,0,0,1-2.34-1.29c-1.12-1.57-.75-3.82,1.4-5.35l4.53-3.25Zm-10.26-5.07a1.51,1.51,0,1,0,1.75,2.45l2.23-1.59-1.75-2.45Zm3.38,4.12a1.25,1.25,0,1,0,1.44,2l1.94-1.39-1.44-2Z"/></g><g class="cls-1"><path class="cls-2" d="M156.64,197.53,154,199l-10-8.66,2.49-1.33,2.27,2,4.2-2.24-.4-3,2.49-1.34Zm-6-4.89,3.2,2.89.06,0-.62-4.28Z"/></g><g class="cls-1"><path class="cls-2" d="M147.11,202.42,142.88,204a6.21,6.21,0,1,1-4.34-11.61l4.23-1.58Zm-7.7-7.7a3.72,3.72,0,1,0,2.6,7l1.74-.65-2.6-7Z"/></g><g class="cls-1"><path class="cls-2" d="M130.36,207.89l-2.94.67-7.41-11,2.76-.63,1.67,2.52,4.66-1.06.4-3,2.76-.63Zm-4.53-6.32,2.34,3.64.07,0,.53-4.29Z"/></g><g class="cls-1"><path class="cls-2" d="M118.5,201.09a3.38,3.38,0,0,0-.82-.59,3.92,3.92,0,0,0-2.22-.43c-1.41.15-2,.83-1.88,1.62.22,2.1,6.29.52,6.73,4.82.2,1.94-1.3,3.78-4.11,4.07a5.88,5.88,0,0,1-3.19-.52,5.25,5.25,0,0,1-1.12-.72l1.57-1.94a5,5,0,0,0,.67.46,3.13,3.13,0,0,0,1.73.36c1.34-.14,1.8-.72,1.72-1.43-.21-2.09-6.28-.52-6.73-4.81-.21-2,1.37-4,4.28-4.27a6.66,6.66,0,0,1,3.67.59,4.61,4.61,0,0,1,1.28.85Z"/></g><g class="cls-1"><path class="cls-2" d="M108.08,202a3.92,3.92,0,0,0-2.9-1.38c-1.41,0-2.05.58-2.06,1.37,0,2.11,6.17,1.3,6.08,5.61,0,2-1.75,3.6-4.58,3.54a5.94,5.94,0,0,1-3.1-.91,6.3,6.3,0,0,1-1-.85l1.81-1.74a4.59,4.59,0,0,0,.61.55,3,3,0,0,0,1.67.56c1.34,0,1.87-.49,1.88-1.2,0-2.11-6.17-1.29-6.08-5.61,0-2,1.84-3.77,4.76-3.71a6.67,6.67,0,0,1,3.57,1,4.64,4.64,0,0,1,1.17,1Z"/></g><g class="cls-1"><path class="cls-2" d="M91.42,204.24a2.21,2.21,0,1,1,2.48-1.9A2.19,2.19,0,0,1,91.42,204.24Z"/></g><g class="cls-1"><path class="cls-2" d="M80.89,208.1l-5-1.43c-2.39-.67-3.42-2.53-2.94-4.24a2.64,2.64,0,0,1,1.37-1.7,2.72,2.72,0,0,1,1-.31,3.36,3.36,0,0,1-1-.89,3,3,0,0,1-.45-2.63c.53-1.85,2.52-3,5.06-2.24l5.36,1.52Zm-3.55-6a1.25,1.25,0,1,0-.68,2.39l2.3.65.68-2.38Zm1.11-5.2a1.51,1.51,0,1,0-.82,2.89l2.64.75.82-2.89Z"/></g><g class="cls-1"><path class="cls-2" d="M65.38,203l-2.77-1.18.47-13.27,2.61,1.11-.14,3,4.39,1.87L72,192.38l2.61,1.11Zm0-7.77-.24,4.32.06,0,3-3.17Z"/></g><g class="cls-1"><path class="cls-2" d="M55.61,198.53l-3.87-2.32a6.21,6.21,0,1,1,6.37-10.63L62,187.91Zm1.23-10.82A3.72,3.72,0,1,0,53,194.08l1.59,1,3.83-6.37Z"/></g><g class="cls-1"><path class="cls-2" d="M40.87,188.83,38.51,187l4-12.67,2.21,1.77-.94,2.87,3.74,3,2.59-1.56,2.22,1.77ZM43,181.35l-1.39,4.1.06.05,3.69-2.27Z"/></g><g class="cls-1"><path class="cls-2" d="M38.82,175.34a3.24,3.24,0,0,0-.06-1,3.73,3.73,0,0,0-1-2c-1-1-1.86-1-2.43-.46-1.5,1.48,3.51,5.23.44,8.26-1.39,1.37-3.77,1.35-5.76-.66a6.12,6.12,0,0,1-1.58-2.82,5.63,5.63,0,0,1-.14-1.33l2.51,0a3.64,3.64,0,0,0,.05.81,3.1,3.1,0,0,0,.8,1.57c.95,1,1.69,1,2.19.46,1.5-1.48-3.51-5.23-.44-8.26,1.45-1.43,4-1.41,6,.67a6.57,6.57,0,0,1,1.82,3.24,4.53,4.53,0,0,1,.14,1.53Z"/></g><g class="cls-1"><path class="cls-2" d="M31.68,167.76a3.38,3.38,0,0,0,.05-1,3.69,3.69,0,0,0-.83-2.09c-.87-1.11-1.74-1.21-2.36-.71-1.65,1.3,2.93,5.55-.44,8.23-1.52,1.21-3.88.94-5.63-1.27A5.89,5.89,0,0,1,21.2,168a5.46,5.46,0,0,1,0-1.34l2.48.29a4.36,4.36,0,0,0,0,.81,3,3,0,0,0,.63,1.64c.83,1,1.56,1.12,2.12.68,1.64-1.3-2.93-5.56.44-8.23,1.58-1.27,4.06-1,5.87,1.3a6.65,6.65,0,0,1,1.47,3.4,4.59,4.59,0,0,1,0,1.53Z"/></g><g class="cls-1"><path class="cls-2" d="M19.44,156.08a2.21,2.21,0,1,1,3,.77A2.19,2.19,0,0,1,19.44,156.08Z"/></g><g class="cls-1"><path class="cls-2" d="M9.88,150.29l-2-4.81c-1-2.29-.15-4.26,1.48-4.94a2.65,2.65,0,0,1,2.19,0,2.61,2.61,0,0,1,.83.55,3.48,3.48,0,0,1,.11-1.29,3,3,0,0,1,1.78-2c1.78-.75,3.88.12,4.9,2.55l2.16,5.14Zm2.46-6.49a1.25,1.25,0,1,0-2.29.95L11,147l2.29-1Zm4.76-2.38a1.52,1.52,0,1,0-2.78,1.16l1.06,2.53L18.16,144Z"/></g><g class="cls-1"><path class="cls-2" d="M4.21,135.07l-.81-2.89L14,124.24l.77,2.72-2.44,1.79,1.3,4.58,3,.26.77,2.72Zm6.07-4.83-3.51,2.51,0,.07,4.3.31Z"/></g><g class="cls-1"><path class="cls-2" d="M1.6,124.55,1,120.07a6.21,6.21,0,1,1,12.29-1.63l.59,4.48Zm9.23-5.78a3.65,3.65,0,0,0-4.19-3.28,3.64,3.64,0,0,0-3.18,4.26l.24,1.84,7.37-1Z"/></g><g class="cls-1"><path class="cls-2" d="M0,106.74l.06-3L12.54,99.2l0,2.83-2.86,1-.09,4.78,2.81,1.12-.06,2.83Zm7.23-2.87-4.1,1.39v.07l4,1.55Z"/></g><g class="cls-1"><path class="cls-2" d="M9.26,96.94a3.66,3.66,0,0,0,.76-.67,3.8,3.8,0,0,0,.91-2.07c.17-1.41-.37-2.09-1.17-2.19-2.09-.25-1.89,6-6.18,5.5C1.65,97.28.18,95.41.51,92.6a5.91,5.91,0,0,1,1.22-3,5,5,0,0,1,1-.94l1.54,2a5.14,5.14,0,0,0-.6.55,3,3,0,0,0-.72,1.6c-.16,1.34.3,1.91,1,2,2.09.25,1.89-6,6.18-5.5,2,.24,3.57,2.21,3.22,5.11a6.73,6.73,0,0,1-1.39,3.45,4.61,4.61,0,0,1-1.11,1.06Z"/></g><g class="cls-1"><path class="cls-2" d="M10.71,86.67a3.27,3.27,0,0,0,.82-.59,3.73,3.73,0,0,0,1.13-2c.32-1.38-.15-2.12-.92-2.3C9.69,81.35,9.21,87.6,5,86.62c-1.9-.43-3.16-2.45-2.52-5.21A5.91,5.91,0,0,1,4,78.56a5.65,5.65,0,0,1,1-.83l1.33,2.13a3.83,3.83,0,0,0-.66.48,3.09,3.09,0,0,0-.9,1.52c-.3,1.31.1,1.93.79,2.09,2.06.47,2.54-5.77,6.74-4.8,2,.46,3.32,2.58,2.66,5.42a6.75,6.75,0,0,1-1.76,3.29,4.51,4.51,0,0,1-1.21.93Z"/></g><g class="cls-1"><path class="cls-2" d="M12.22,69.83a2.21,2.21,0,1,1,1.29,2.85A2.19,2.19,0,0,1,12.22,69.83Z"/></g><g class="cls-1"><path class="cls-2" d="M10.81,58.69l2.52-4.58c1.19-2.17,3.24-2.76,4.79-1.91a2.69,2.69,0,0,1,1.36,1.72,3,3,0,0,1,.08,1,3.22,3.22,0,0,1,1.08-.71,3,3,0,0,1,2.66.15c1.69.93,2.33,3.12,1.05,5.43l-2.68,4.88Zm6.62-2.12a1.25,1.25,0,1,0-2.17-1.19l-1.15,2.09,2.17,1.2Zm4.82,2.25a1.51,1.51,0,1,0-2.63-1.45l-1.33,2.41,2.64,1.45Z"/></g><g class="cls-1"><path class="cls-2" d="M19.24,44.74,21,42.3l12.83,3.43L32.17,48l-2.92-.81-2.81,3.87,1.67,2.52-1.67,2.29Zm7.56,1.78-4.15-1.21,0,.06L25,49Z"/></g><g class="cls-1"><path class="cls-2" d="M25.79,36.24,28.91,33a6.19,6.19,0,1,1,8.92,8.55l-3.11,3.25Zm10.26,3.59A3.71,3.71,0,1,0,30.7,34.7L29.41,36l5.36,5.13Z"/></g><g class="cls-1"><path class="cls-2" d="M38.48,24l2.35-1.88,11.47,6.7-2.21,1.77-2.6-1.55-3.74,3,.94,2.87-2.21,1.77Zm6.83,3.72-3.69-2.26-.06,0,1.4,4.1Z"/></g><g class="cls-1"><path class="cls-2" d="M52.12,25a3.55,3.55,0,0,0,1,.17,3.8,3.8,0,0,0,2.18-.58c1.2-.74,1.41-1.6,1-2.27-1.11-1.8-5.89,2.26-8.16-1.41-1-1.66-.48-4,1.93-5.46a5.92,5.92,0,0,1,3.1-.92,5.55,5.55,0,0,1,1.32.16l-.57,2.44A3.7,3.7,0,0,0,53.1,17a3.11,3.11,0,0,0-1.71.43c-1.14.71-1.3,1.43-.93,2,1.11,1.8,5.89-2.26,8.16,1.41,1.07,1.73.5,4.17-2,5.71a6.78,6.78,0,0,1-3.56,1.06,4.68,4.68,0,0,1-1.53-.21Z"/></g><g class="cls-1"><path class="cls-2" d="M61.08,19.74a3.39,3.39,0,0,0,1,.27,3.83,3.83,0,0,0,2.23-.33c1.27-.61,1.56-1.44,1.22-2.15-.91-1.9-6.08,1.61-7.94-2.28-.83-1.75,0-4,2.51-5.2a5.92,5.92,0,0,1,3.16-.58,5.63,5.63,0,0,1,1.3.3l-.83,2.35a5.28,5.28,0,0,0-.78-.21,3.06,3.06,0,0,0-1.75.25c-1.21.58-1.44,1.28-1.14,1.91.91,1.9,6.08-1.61,7.94,2.28.87,1.83,0,4.18-2.59,5.44a6.73,6.73,0,0,1-3.65.67,4.53,4.53,0,0,1-1.48-.37Z"/></g><g class="cls-1"><path class="cls-2" d="M75.17,10.41a2.21,2.21,0,1,1-1.42,2.79A2.19,2.19,0,0,1,75.17,10.41Z"/></g></g></g></g></svg>