<svg xmlns="http://www.w3.org/2000/svg" viewBox="0 0 144.03 144.05"><defs><style>.cls-1{font-size:11.8px;fill:#ffffff;font-family:TTNormsPro-Bold, TT Norms Pro;font-weight:700;}</style></defs><title>badass</title><g id="Calque_2" data-name="Calque 2"><g id="Calque_2-2" data-name="Calque 2"><text class="cls-1" transform="matrix(0.99, -0.17, 0.17, 0.99, 57.35, 11.63)">B</text><text class="cls-1" transform="translate(64.92 10.28) rotate(-2.58)">A</text><text class="cls-1" transform="matrix(1, 0.09, -0.09, 1, 73.14, 9.88)">D</text><text class="cls-1" transform="matrix(0.98, 0.22, -0.22, 0.98, 81.58, 10.62)">A</text><text class="cls-1" transform="translate(89.65 12.47) rotate(19.69)">S</text><text class="cls-1" transform="translate(95.95 14.72) rotate(25.9)">S</text><text class="cls-1" transform="matrix(0.87, 0.5, -0.5, 0.87, 102, 17.74)"> </text><text class="cls-1" transform="matrix(0.83, 0.55, -0.55, 0.83, 104.05, 18.88)">•</text><text class="cls-1" transform="translate(108.18 21.66) rotate(36.88)"> </text><text class="cls-1" transform="matrix(0.75, 0.66, -0.66, 0.75, 110.09, 22.94)">B</text><text class="cls-1" transform="translate(115.87 28.01) rotate(48.8)">A</text><text class="cls-1" transform="translate(121.32 34.18) rotate(56.58)">D</text><text class="cls-1" transform="translate(126 41.24) rotate(64.19)">A</text><text class="cls-1" transform="translate(129.57 48.7) rotate(71.13)">S</text><text class="cls-1" transform="matrix(0.22, 0.98, -0.98, 0.22, 131.75, 55.03)">S</text><text class="cls-1" transform="translate(133.15 61.65) rotate(81.58)"> </text><text class="cls-1" transform="translate(133.54 63.97) rotate(84.95)">•</text><text class="cls-1" transform="matrix(0.03, 1, -1, 0.03, 133.94, 68.89)"> </text><text class="cls-1" transform="translate(134.13 71.23) rotate(92.97)">B</text><text class="cls-1" transform="translate(133.78 78.87) rotate(100.17)">A</text><text class="cls-1" transform="translate(132.35 87) rotate(108.05)">D</text><text class="cls-1" transform="translate(129.74 95.06) rotate(115.71)">A</text><text class="cls-1" transform="matrix(-0.54, 0.84, -0.84, -0.54, 126.12, 102.5)">S</text><text class="cls-1" transform="translate(122.54 108.13) rotate(128.76)">S</text><text class="cls-1" transform="translate(118.24 113.36) rotate(132.95)"> </text><text class="cls-1" transform="translate(116.65 115.12) rotate(136.32)">•</text><text class="cls-1" transform="matrix(-0.76, 0.65, -0.65, -0.76, 113.05, 118.52)"> </text><text class="cls-1" transform="translate(111.36 120.11) rotate(144.41)">B</text><text class="cls-1" transform="matrix(-0.88, 0.47, -0.47, -0.88, 105.15, 124.61)">A</text><text class="cls-1" transform="translate(97.92 128.55) rotate(159.49)">D</text><text class="cls-1" transform="translate(89.98 131.53) rotate(167.16)">A</text><text class="cls-1" transform="translate(81.92 133.34) rotate(174.07)">S</text><text class="cls-1" transform="matrix(-1, -0.02, 0.02, -1, 75.26, 134.09)">S</text><text class="cls-1" transform="translate(68.52 133.94) rotate(-175.69)"> </text><text class="cls-1" transform="matrix(-0.99, -0.13, 0.13, -0.99, 66.14, 133.81)">•</text><text class="cls-1" transform="matrix(-0.98, -0.19, 0.19, -0.98, 61.25, 133.11)"> </text><text class="cls-1" transform="translate(58.95 132.79) rotate(-164.15)">B</text><text class="cls-1" transform="translate(51.56 130.73) rotate(-156.86)">A</text><text class="cls-1" transform="translate(43.98 127.53) rotate(-149.02)">D</text><text class="cls-1" transform="translate(36.68 123.17) rotate(-141.41)">A</text><text class="cls-1" transform="translate(30.26 118) rotate(-134.57)">S</text><text class="cls-1" transform="matrix(-0.62, -0.78, 0.78, -0.62, 25.54, 113.23)">S</text><text class="cls-1" transform="translate(21.41 107.89) rotate(-124.24)"> </text><text class="cls-1" transform="translate(20.04 105.95) rotate(-120.85)">•</text><text class="cls-1" transform="matrix(-0.46, -0.89, 0.89, -0.46, 17.53, 101.69)"> </text><text class="cls-1" transform="translate(16.36 99.7) rotate(-112.71)">B</text><text class="cls-1" transform="matrix(-0.27, -0.96, 0.96, -0.27, 13.36, 92.64)">A</text><text class="cls-1" transform="translate(11.14 84.71) rotate(-97.56)">D</text><text class="cls-1" transform="matrix(0.02, -1, 1, 0.02, 9.94, 76.28)">A</text><text class="cls-1" transform="translate(10.04 68.02) rotate(-83.18)">S</text><text class="cls-1" transform="translate(10.81 61.39) rotate(-77)">S</text><text class="cls-1" transform="translate(12.41 54.82) rotate(-72.77)"> </text><text class="cls-1" transform="translate(13.07 52.55) rotate(-69.36)">•</text><text class="cls-1" transform="translate(14.85 47.92) rotate(-65.96)"> </text><text class="cls-1" transform="translate(15.68 45.75) rotate(-61.18)">B</text><text class="cls-1" transform="translate(19.34 39.02) rotate(-53.96)">A</text><text class="cls-1" transform="matrix(0.69, -0.72, 0.72, 0.69, 24.16, 32.34)">D</text><text class="cls-1" transform="translate(30.02 26.21) rotate(-38.61)">A</text><text class="cls-1" transform="translate(36.5 21.08) rotate(-31.74)">S</text><text class="cls-1" transform="matrix(0.9, -0.43, 0.43, 0.9, 42.18, 17.55)">S</text><text class="cls-1" transform="translate(48.31 14.7) rotate(-21.32)"> </text><text class="cls-1" transform="matrix(0.95, -0.31, 0.31, 0.95, 50.5, 13.81)">•</text><text class="cls-1" transform="translate(55.22 12.32) rotate(-14.52)"> </text></g></g></svg>