<svg width="27" height="32" viewBox="0 0 27 32" fill="none" xmlns="http://www.w3.org/2000/svg">
<path d="M3.5528 11.7885L4.6545 11.7885L4.6545 7.93259C4.6545 3.67948 8.6074 0.220702 13.4681 0.220702C18.3288 0.220702 22.2817 3.67949 22.2817 7.93259L22.2817 11.7885L23.3834 11.7885C25.2049 11.7885 26.6885 13.0854 26.6885 14.6805L26.6885 28.1763C26.6885 29.7714 25.2049 31.0683 23.3834 31.0683L3.5528 31.0683C1.73133 31.0683 0.247707 29.7714 0.247707 28.1763L0.247708 14.6805C0.247708 13.0854 1.73133 11.7885 3.5528 11.7885ZM19.3438 7.93259C19.3438 5.09719 16.7086 2.79133 13.4681 2.79133C10.2276 2.79133 7.59236 5.09719 7.59236 7.93259L7.59236 11.7885L19.3438 11.7885L19.3438 7.93259ZM11.9992 21.7137L11.9992 24.6417C11.9992 25.3512 12.6558 25.927 13.4681 25.927C14.2804 25.927 14.937 25.3512 14.937 24.6417L14.937 21.7137C15.811 21.2677 16.406 20.4477 16.406 19.5004C16.406 18.0827 15.0883 16.9298 13.4681 16.9298C11.8479 16.9298 10.5302 18.0827 10.5302 19.5004C10.5302 20.4477 11.1251 21.2677 11.9992 21.7137Z" fill="#000648"/>
</svg>
