<svg xmlns="http://www.w3.org/2000/svg" viewBox="0 0 211.9 211.78"><defs><style>.cls-1{isolation:isolate;}.cls-2{fill:#ffffff;}</style></defs><g id="Calque_2" data-name="Calque 2"><g id="Calque_1-2" data-name="Calque 1"><g id="Calque_2-2" data-name="Calque 2"><g id="Calque_2-2-2" data-name="Calque 2-2"><g class="cls-1"><path class="cls-2" d="M96.69,10.78a7.63,7.63,0,0,1-1.15,1.49,7.19,7.19,0,0,1-3.85,1.93,6.78,6.78,0,0,1-8-5.46A6.77,6.77,0,0,1,89.51,1a6.88,6.88,0,0,1,4.2.61,7.12,7.12,0,0,1,1.55,1l-1.51,2.1A6.22,6.22,0,0,0,92.68,4a4.32,4.32,0,0,0-2.75-.47,4.11,4.11,0,0,0,1.34,8.12,4.63,4.63,0,0,0,2.54-1.34,4.1,4.1,0,0,0,.77-1.06Z"/></g><g class="cls-1"><path class="cls-2" d="M98.28.17,104,0a4.14,4.14,0,0,1,4.61,4.17,4.12,4.12,0,0,1-1,3,3.46,3.46,0,0,1-1.08.8l2.8,4.68-3,.09-2.41-4.14-2.56.07.12,4.21L98.67,13ZM104.05,6a1.66,1.66,0,0,0,1.68-1.79,1.66,1.66,0,0,0-1.79-1.68l-2.84.08.11,3.48Z"/></g><g class="cls-1"><path class="cls-2" d="M115.89.48l3.1.34,3.53,13.26-2.91-.31-.78-3-4.91-.53L112.51,13l-2.91-.32Zm2.3,7.7-1.06-4.34h-.07l-2,4Z"/></g><g class="cls-1"><path class="cls-2" d="M135.28,14.92a7.22,7.22,0,0,1-1.64.91,7.11,7.11,0,0,1-4.3.25,6.76,6.76,0,0,1-5.13-8.16,6.75,6.75,0,0,1,8.35-4.8,6.82,6.82,0,0,1,4.62,3.79L135,8.24a5.51,5.51,0,0,0-.68-1.11A4.32,4.32,0,0,0,132,5.6a4.12,4.12,0,1,0-2,8,4.56,4.56,0,0,0,2.86-.23A4.09,4.09,0,0,0,134,12.7Z"/></g><g class="cls-1"><path class="cls-2" d="M141.08,5.9l2.54,1L141.57,12l6.63-3.24L151.26,10l-6.4,3.14L146.81,22l-3-1.2-1.43-6.49-2.18,1-1.4,3.48-2.54-1Z"/></g><g class="cls-1"><path class="cls-2" d="M157.33,13.17l4,2.47a6.41,6.41,0,1,1-6.77,10.87l-4-2.47Zm-1.46,11.17a3.84,3.84,0,1,0,4.06-6.52l-1.63-1-4.06,6.52Z"/></g><g class="cls-1"><path class="cls-2" d="M170.07,21.53l7.33,6.09-1.64,2-5.21-4.34L169,27.17l4.09,3.39-1.58,1.9-4.09-3.39-1.75,2.11L171,35.63l-1.64,2-7.47-6.21Z"/></g><g class="cls-1"><path class="cls-2" d="M183.08,33.32l1.81,2.07-7.7,6.75,3.92,4.47-1.93,1.69-5.73-6.53Z"/></g><g class="cls-1"><path class="cls-2" d="M190.13,41.15l.34,2.39-4.68.36-.24-1.66Z"/></g><g class="cls-1"><path class="cls-2" d="M192.82,45.28l5.14,8-2.15,1.38L192.15,49l-2.07,1.34,2.86,4.46-2.07,1.33L188,51.64l-2.31,1.48L189.45,59l-2.15,1.38-5.24-8.15Z"/></g><g class="cls-1"><path class="cls-2" d="M191.65,61.23a3.59,3.59,0,0,0-.29,1,3.94,3.94,0,0,0,.36,2.3c.63,1.32,1.49,1.62,2.23,1.27,2-1-1.68-6.3,2.34-8.23,1.81-.87,4.13-.06,5.4,2.58a6.1,6.1,0,0,1,.6,3.28,5.67,5.67,0,0,1-.3,1.35l-2.45-.86a3.89,3.89,0,0,0,.22-.81,3.11,3.11,0,0,0-.26-1.81c-.6-1.25-1.32-1.49-2-1.18-2,.95,1.68,6.3-2.34,8.23-1.9.91-4.34.06-5.65-2.67a7,7,0,0,1-.7-3.78,4.65,4.65,0,0,1,.38-1.54Z"/></g><g class="cls-1"><path class="cls-2" d="M204.75,67.57l1.73,5.13a4.32,4.32,0,1,1-8.17,2.75l-.85-2.52-4,1.35-.87-2.61Zm-4,7A1.75,1.75,0,1,0,204,73.44L203.2,71l-3.3,1.11Z"/></g><g class="cls-1"><path class="cls-2" d="M209.25,82.85l.63,3-11.55,7.42-.59-2.86,2.64-1.67-1-4.84-3.09-.48-.59-2.87Zm-6.63,4.54,3.81-2.34V85L202,84.34Z"/></g><g class="cls-1"><path class="cls-2" d="M201.47,105.73a7.52,7.52,0,0,1-1.38-1.28,7.15,7.15,0,0,1-1.56-4,6.7,6.7,0,1,1,13.35-.94,6.89,6.89,0,0,1-2.18,5.58l-2-1.7a5.42,5.42,0,0,0,.85-1,4.36,4.36,0,0,0,.73-2.7,4.13,4.13,0,1,0-8.23.58,4.6,4.6,0,0,0,1.1,2.66,4.44,4.44,0,0,0,1,.87Z"/></g><g class="cls-1"><path class="cls-2" d="M211.8,108.36l-.62,9.49-2.56-.16.44-6.76-2.46-.16-.35,5.29-2.46-.16.34-5.29-2.73-.18-.45,6.94-2.56-.17.63-9.67Z"/></g><g class="cls-1"><path class="cls-2" d="M203.6,127.19a2.28,2.28,0,1,1-1.76-2.71A2.26,2.26,0,0,1,203.6,127.19Z"/></g><g class="cls-1"><path class="cls-2" d="M192.79,145.62a7.49,7.49,0,0,1-.72-1.74,7.25,7.25,0,0,1,.26-4.3,6.68,6.68,0,1,1,12.49,4.73,7,7,0,0,1-2.63,3.33,6.77,6.77,0,0,1-1.67.81l-1.07-2.36a5.15,5.15,0,0,0,1.19-.55,4.31,4.31,0,0,0,1.79-2.14,4.12,4.12,0,0,0-7.7-2.92,4.64,4.64,0,0,0-.11,2.88,4.57,4.57,0,0,0,.52,1.19Z"/></g><g class="cls-1"><path class="cls-2" d="M201.11,152.37l-2.73,5a4.13,4.13,0,0,1-5.92,1.87,4.06,4.06,0,0,1-2.09-2.4,3.33,3.33,0,0,1-.15-1.33l-5.44,0,1.45-2.65,4.79,0,1.23-2.25-3.69-2,1.31-2.41Zm-8,2a1.74,1.74,0,1,0,3.05,1.67l1.36-2.49-3-1.67Z"/></g><g class="cls-1"><path class="cls-2" d="M192,167.45l-1.85,2.5-13.24-3.65,1.75-2.35,3,.86,2.94-4-1.7-2.63,1.74-2.35Zm-7.81-1.91,4.29,1.28,0,0L186,163Z"/></g><g class="cls-1"><path class="cls-2" d="M169.69,177a7,7,0,0,1,0-1.88,7.16,7.16,0,0,1,2-3.86,6.71,6.71,0,1,1,9.61,9.35,6.9,6.9,0,0,1-5.62,2.09l0-2.6a5.23,5.23,0,0,0,1.31,0,4.32,4.32,0,0,0,2.5-1.26,4.13,4.13,0,0,0-5.93-5.76,4.65,4.65,0,0,0-1.25,2.6,4.48,4.48,0,0,0,0,1.32Z"/></g><g class="cls-1"><path class="cls-2" d="M174.62,186.43l-2.17,1.67-3.35-4.33-.55,7.35-2.61,2,.53-7.1-8.63-2.8,2.53-1.95,6.31,2,.24-2.37-2.28-3,2.16-1.67Z"/></g><g class="cls-1"><path class="cls-2" d="M160.22,196.8l-4.1,2.19a6.4,6.4,0,1,1-6-11.27l4.1-2.19ZM151.3,190a3.83,3.83,0,1,0,3.61,6.76l1.69-.9L153,189.07Z"/></g><g class="cls-1"><path class="cls-2" d="M146.6,203.64l-8.93,3.28-.88-2.4,6.35-2.34-.85-2.31-5,1.83-.85-2.32,5-1.83-.95-2.58-6.52,2.4-.89-2.4,9.1-3.35Z"/></g><g class="cls-1"><path class="cls-2" d="M129.87,209l-2.69.52-2-10-5.83,1.13-.49-2.51,8.52-1.65Z"/></g><g class="cls-1"><path class="cls-2" d="M119.58,211.14l-2.24-.91,2-4.23,1.56.63Z"/></g><g class="cls-1"><path class="cls-2" d="M114.54,211.4l-9.51.38-.1-2.56,6.77-.28-.1-2.46-5.31.21-.1-2.47,5.31-.22-.11-2.74-7,.28-.11-2.56,9.7-.39Z"/></g><g class="cls-1"><path class="cls-2" d="M101.38,202.35a3.74,3.74,0,0,0-.73-.76,4,4,0,0,0-2.18-.86c-1.47-.11-2.16.48-2.22,1.3-.18,2.18,6.3,1.72,6,6.19-.16,2-2,3.61-5,3.37a6.2,6.2,0,0,1-3.15-1.13,5.75,5.75,0,0,1-1-1l2-1.68a5.56,5.56,0,0,0,.59.6,3.2,3.2,0,0,0,1.7.69c1.39.11,2-.4,2-1.13.18-2.18-6.31-1.72-6-6.19.17-2.1,2.14-3.78,5.16-3.54a6.9,6.9,0,0,1,3.64,1.3,4.64,4.64,0,0,1,1.14,1.11Z"/></g><g class="cls-1"><path class="cls-2" d="M89.39,210.45l-5.29-1.07A4.3,4.3,0,1,1,85.8,201l2.6.52.83-4.12,2.69.54Zm-4-7a1.7,1.7,0,0,0-2.14,1.35,1.68,1.68,0,0,0,1.45,2.06l2.51.51L87.9,204Z"/></g><g class="cls-1"><path class="cls-2" d="M73.9,206.71l-3-1L70.32,192l2.77.93.12,3.12,4.68,1.57,2-2.43,2.78.92Zm-.61-8,.11,4.48.07,0,2.77-3.51Z"/></g><g class="cls-1"><path class="cls-2" d="M58,188.52a7,7,0,0,1,1.8-.54,7.15,7.15,0,0,1,4.27.65,6.7,6.7,0,1,1-5.88,12,6.93,6.93,0,0,1-3.07-2.93,7,7,0,0,1-.66-1.75l2.45-.84a5.81,5.81,0,0,0,.44,1.23,4.31,4.31,0,0,0,2,2,4.12,4.12,0,1,0,3.62-7.41,4.63,4.63,0,0,0-2.85-.38,4.39,4.39,0,0,0-1.25.42Z"/></g><g class="cls-1"><path class="cls-2" d="M50.5,196.1l-7.9-5.33L44,188.64l5.62,3.8L51,190.38l-4.41-3,1.38-2,4.41,3L54,186.06l-5.78-3.9L49.62,180l8.05,5.44Z"/></g><g class="cls-1"><path class="cls-2" d="M38.37,179.51a2.29,2.29,0,1,1,3.23-.16A2.25,2.25,0,0,1,38.37,179.51Z"/></g><g class="cls-1"><path class="cls-2" d="M27.89,160.84a7,7,0,0,1,5.45,2.66,6.7,6.7,0,1,1-10.42,8.42,7,7,0,0,1-1.54-4,6.77,6.77,0,0,1,.14-1.87l2.58.28a5.16,5.16,0,0,0-.12,1.3,4.32,4.32,0,0,0,.94,2.63,4.12,4.12,0,1,0,6.42-5.18,4.59,4.59,0,0,0-2.43-1.55,4.16,4.16,0,0,0-1.3-.15Z"/></g><g class="cls-1"><path class="cls-2" d="M17.81,164.74l-2.94-4.88a4.15,4.15,0,0,1,1.36-6.09,4.13,4.13,0,0,1,3.14-.61,3.4,3.4,0,0,1,1.23.55L23.31,149l1.57,2.6-2.43,4.15,1.33,2.21,3.62-2.19,1.43,2.36Zm2.3-7.94a1.75,1.75,0,0,0-3,1.81l1.47,2.44,3-1.81Z"/></g><g class="cls-1"><path class="cls-2" d="M9.42,149.27l-1.23-2.85L18,136.79l1.16,2.69-2.25,2.17,2,4.53L22,146l1.16,2.68Zm5.57-5.8-3.26,3.07,0,.06,4.46-.27Z"/></g><g class="cls-1"><path class="cls-2" d="M12.41,125.28a6.89,6.89,0,0,1,1.6,1,7.2,7.2,0,0,1,2.35,3.62,6.76,6.76,0,0,1-4.57,8.49,6.76,6.76,0,0,1-8.3-4.9,6.88,6.88,0,0,1,.15-4.24,7,7,0,0,1,.87-1.65l2.25,1.27A5.59,5.59,0,0,0,6.13,130,4.29,4.29,0,0,0,6,132.78a4.12,4.12,0,1,0,7.93-2.21,4.54,4.54,0,0,0-1.62-2.38,4.14,4.14,0,0,0-1.13-.65Z"/></g><g class="cls-1"><path class="cls-2" d="M1.71,124.75,1.35,122l5.44-.73-6.1-4.17-.44-3.26,5.89,4,6.76-6.08.42,3.18-4.94,4.44,1.94,1.4,3.72-.49.37,2.72Z"/></g><g class="cls-1"><path class="cls-2" d="M0,107.05l.18-4.66a6.45,6.45,0,0,1,6.65-6.52,6.47,6.47,0,0,1,6.15,7l-.18,4.66Zm10.42-4.27A3.79,3.79,0,0,0,6.73,98.7a3.77,3.77,0,0,0-4,3.79l-.08,1.92,7.68.29Z"/></g><g class="cls-1"><path class="cls-2" d="M1,91.82,2.6,82.45l2.53.44L4,89.56,6.39,90l.92-5.23,2.43.43-.92,5.22,2.71.48L12.73,84l2.52.44L13.57,94Z"/></g><g class="cls-1"><path class="cls-2" d="M4.73,74.68l.9-2.59,9.68,3.35,1.94-5.62,2.42.84-2.84,8.21Z"/></g><g class="cls-1"><path class="cls-2" d="M8.06,64.65,10,63.18l2.62,3.89-1.33,1Z"/></g><g class="cls-1"><path class="cls-2" d="M10.39,60.23l4.47-8.37,2.25,1.2-3.18,6,2.17,1.16,2.5-4.67,2.17,1.16-2.49,4.67,2.41,1.29L24,56.51l2.25,1.2-4.56,8.53Z"/></g><g class="cls-1"><path class="cls-2" d="M24.77,53.42a3.95,3.95,0,0,0,2.84-1.7c.84-1.2.68-2.09,0-2.56-1.79-1.25-4.64,4.57-8.31,2-1.65-1.15-2.09-3.57-.42-6a6,6,0,0,1,2.56-2.14,5.83,5.83,0,0,1,1.32-.4l.46,2.55a4.94,4.94,0,0,0-.82.21A3.2,3.2,0,0,0,21,46.54c-.79,1.15-.64,1.9,0,2.31,1.79,1.24,4.64-4.57,8.31-2,1.73,1.2,2.19,3.74.47,6.22a7,7,0,0,1-2.95,2.48,4.7,4.7,0,0,1-1.53.43Z"/></g><g class="cls-1"><path class="cls-2" d="M23.79,39l3.56-4a4.3,4.3,0,1,1,6.45,5.67l-1.75,2,3.16,2.78L33.4,47.44Zm8,0a1.74,1.74,0,1,0-2.61-2.29l-1.69,1.92,2.61,2.29Z"/></g><g class="cls-1"><path class="cls-2" d="M34.87,27.44l2.33-2.05,12.17,6.34-2.2,1.94L44.42,32.2l-3.71,3.26,1.11,2.92-2.2,1.94ZM42.1,31l-3.92-2.16-.06.05L39.76,33Z"/></g><g class="cls-1"><path class="cls-2" d="M58.56,22.94a6.71,6.71,0,0,1-.43,1.81,7.13,7.13,0,0,1-2.71,3.33A6.66,6.66,0,1,1,48.07,17a6.92,6.92,0,0,1,4.06-1.16,7.23,7.23,0,0,1,1.83.32l-.51,2.53a5.58,5.58,0,0,0-1.28-.25,4.31,4.31,0,0,0-2.69.69A4.1,4.1,0,0,0,54,26a4.58,4.58,0,0,0,1.76-2.26A4.37,4.37,0,0,0,56,22.42Z"/></g><g class="cls-1"><path class="cls-2" d="M55.75,12.57,64.3,8.41l1.12,2.31-6.08,3,1.08,2.22,4.77-2.32,1.08,2.22L61.5,18.12l1.19,2.47,6.26-3,1.12,2.3-8.72,4.24Z"/></g><g class="cls-1"><path class="cls-2" d="M76.23,10.41a2.28,2.28,0,1,1-1.49,2.86A2.26,2.26,0,0,1,76.23,10.41Z"/></g></g></g></g></g></svg>