<svg xmlns="http://www.w3.org/2000/svg" viewBox="0 0 144.71 144.73"><defs><style>.cls-1{font-size:12.2px;fill:#000648;font-family:TTNormsPro-Bold, TT Norms Pro;font-weight:700;}</style></defs><title>crack</title><g id="Calque_2" data-name="Calque 2"><g id="Calque_2-2" data-name="Calque 2"><text class="cls-1" transform="translate(57.7 11.94) rotate(-9.36)">C</text><text class="cls-1" transform="matrix(1, -0.03, 0.03, 1, 66.4, 10.5)">R</text><text class="cls-1" transform="translate(74.73 10.26) rotate(6.18)">A</text><text class="cls-1" transform="translate(82.96 11.1) rotate(13.98)">C</text><text class="cls-1" transform="translate(91.56 13.25) rotate(21.96)">K</text><text class="cls-1" transform="translate(98.92 16.32) rotate(26.6)"> </text><text class="cls-1" transform="translate(101.16 17.26) rotate(31.93)">D</text><text class="cls-1" transform="matrix(0.77, 0.64, -0.64, 0.77, 108.79, 22.04)">E</text><text class="cls-1" transform="translate(114.82 27.19) rotate(44.42)"> </text><text class="cls-1" transform="translate(116.63 28.83) rotate(48.76)">L</text><text class="cls-1" transform="translate(120.58 33.38) rotate(52.48)">’</text><text class="cls-1" transform="matrix(0.54, 0.84, -0.84, 0.54, 122.5, 35.69)">E</text><text class="cls-1" transform="translate(126.71 42.34) rotate(64.34)">S</text><text class="cls-1" transform="matrix(0.32, 0.95, -0.95, 0.32, 129.76, 48.55)">P</text><text class="cls-1" transform="translate(132.18 55.48) rotate(78.35)">A</text><text class="cls-1" transform="matrix(0.07, 1, -1, 0.07, 133.89, 63.56)">C</text><text class="cls-1" transform="translate(134.47 72.4) rotate(93.72)">E</text><text class="cls-1" transform="translate(133.85 80.3) rotate(98.46)"> </text><text class="cls-1" transform="translate(133.54 82.72) rotate(101.97)">•</text><text class="cls-1" transform="matrix(-0.27, 0.96, -0.96, -0.27, 132.44, 87.74)"> </text><text class="cls-1" transform="translate(131.95 90.08) rotate(110.75)">C</text><text class="cls-1" transform="translate(128.83 98.33) rotate(118.71)">R</text><text class="cls-1" transform="translate(124.83 105.67) rotate(126.49)">A</text><text class="cls-1" transform="matrix(-0.7, 0.72, -0.72, -0.7, 119.94, 112.36)">C</text><text class="cls-1" transform="matrix(-0.79, 0.61, -0.61, -0.79, 113.79, 118.68)">K</text><text class="cls-1" transform="translate(107.42 123.52) rotate(146.69)"> </text><text class="cls-1" transform="matrix(-0.88, 0.47, -0.47, -0.88, 105.49, 124.98)">D</text><text class="cls-1" transform="translate(97.54 129.18) rotate(159.82)">E</text><text class="cls-1" transform="translate(90.05 131.82) rotate(164.63)"> </text><text class="cls-1" transform="matrix(-0.98, 0.19, -0.19, -0.98, 87.75, 132.55)">L</text><text class="cls-1" transform="matrix(-0.99, 0.13, -0.13, -0.99, 81.81, 133.67)">’</text><text class="cls-1" transform="matrix(-1, 0.04, -0.04, -1, 78.84, 134.16)">E</text><text class="cls-1" transform="matrix(-1, -0.08, 0.08, -1, 70.96, 134.45)">S</text><text class="cls-1" transform="translate(64.08 133.96) rotate(-168.59)">P</text><text class="cls-1" transform="translate(56.87 132.58) rotate(-161.55)">A</text><text class="cls-1" transform="matrix(-0.9, -0.44, 0.44, -0.9, 49.01, 130.01)">C</text><text class="cls-1" transform="matrix(-0.83, -0.56, 0.56, -0.83, 41.08, 126.07)">E</text><text class="cls-1" transform="translate(34.55 121.54) rotate(-141.24)"> </text><text class="cls-1" transform="translate(32.63 120.06) rotate(-137.78)">•</text><text class="cls-1" transform="translate(28.86 116.58) rotate(-134.29)"> </text><text class="cls-1" transform="matrix(-0.63, -0.78, 0.78, -0.63, 27.07, 114.97)">C</text><text class="cls-1" transform="matrix(-0.52, -0.86, 0.86, -0.52, 21.51, 108.14)">R</text><text class="cls-1" transform="translate(17.17 101.01) rotate(-113.41)">A</text><text class="cls-1" transform="translate(13.84 93.44) rotate(-105.59)">C</text><text class="cls-1" transform="translate(11.47 84.93) rotate(-97.65)">K</text><text class="cls-1" transform="translate(10.5 76.99) rotate(-93.04)"> </text><text class="cls-1" transform="translate(10.21 74.6) rotate(-87.82)">D</text><text class="cls-1" transform="translate(10.58 65.58) rotate(-80.05)">E</text><text class="cls-1" transform="matrix(0.25, -0.97, 0.97, 0.25, 12.05, 57.79)"> </text><text class="cls-1" transform="translate(12.58 55.43) rotate(-70.88)">L</text><text class="cls-1" transform="matrix(0.39, -0.92, 0.92, 0.39, 14.58, 49.74)">’</text><text class="cls-1" transform="matrix(0.47, -0.88, 0.88, 0.47, 15.64, 46.94)">E</text><text class="cls-1" transform="translate(19.35 39.98) rotate(-55.23)">S</text><text class="cls-1" transform="matrix(0.66, -0.75, 0.75, 0.66, 23.26, 34.26)">P</text><text class="cls-1" transform="translate(28.09 28.73) rotate(-41.37)">A</text><text class="cls-1" transform="matrix(0.83, -0.55, 0.55, 0.83, 34.26, 23.23)">C</text><text class="cls-1" transform="translate(41.63 18.35) rotate(-25.92)">E</text><text class="cls-1" transform="translate(48.81 14.98) rotate(-21.12)"> </text><text class="cls-1" transform="matrix(0.95, -0.3, 0.3, 0.95, 51.09, 14.05)">•</text><text class="cls-1" transform="translate(55.98 12.54) rotate(-14.07)"> </text></g></g></svg>