<svg xmlns="http://www.w3.org/2000/svg" viewBox="0 0 147.03 146.58"><defs><style>.cls-1{font-size:13.3px;fill:#000648;font-family:TTNormsPro-Bold, TT Norms Pro;font-weight:700;}</style></defs><title>tu_geres_de_ouf</title><g id="Calque_2" data-name="Calque 2"><g id="Calque_2-2" data-name="Calque 2"><text class="cls-1" transform="translate(59.08 12.92) rotate(-9.95)">T</text><text class="cls-1" transform="translate(66.52 11.5) rotate(-1.84)">U</text><text class="cls-1" transform="translate(76.67 11.36) rotate(3.94)"> </text><text class="cls-1" transform="translate(79.26 11.32) rotate(9.9)">G</text><text class="cls-1" transform="matrix(0.95, 0.32, -0.32, 0.95, 89.34, 13.12)">È</text><text class="cls-1" transform="translate(97.46 15.81) rotate(26.79)">R</text><text class="cls-1" transform="matrix(0.82, 0.57, -0.57, 0.82, 105.58, 19.91)">E</text><text class="cls-1" transform="matrix(0.74, 0.67, -0.67, 0.74, 112.58, 24.82)">S</text><text class="cls-1" transform="matrix(0.68, 0.73, -0.73, 0.68, 118.14, 30.01)"> </text><text class="cls-1" transform="translate(120.05 31.78) rotate(52.74)">D</text><text class="cls-1" transform="translate(125.96 39.59) rotate(61.18)">E</text><text class="cls-1" transform="translate(130.01 47.22) rotate(66.39)"> </text><text class="cls-1" transform="translate(131.27 49.47) rotate(72.72)">O</text><text class="cls-1" transform="translate(134.51 59.95) rotate(82.46)">U</text><text class="cls-1" transform="translate(135.8 69.92) rotate(90.93)">F</text><text class="cls-1" transform="translate(135.58 77.86) rotate(95.44)"> </text><text class="cls-1" transform="translate(135.39 80.5) rotate(99.23)">•</text><text class="cls-1" transform="matrix(-0.23, 0.97, -0.97, -0.23, 134.45, 85.99)"> </text><text class="cls-1" transform="translate(134.06 88.2) rotate(107.48)">T</text><text class="cls-1" transform="translate(131.89 95.44) rotate(115.66)">U</text><text class="cls-1" transform="matrix(-0.52, 0.85, -0.85, -0.52, 127.34, 104.5)"> </text><text class="cls-1" transform="translate(126.17 106.82) rotate(127.5)">G</text><text class="cls-1" transform="translate(119.9 114.92) rotate(136.11)">È</text><text class="cls-1" transform="translate(113.77 120.88) rotate(144.19)">R</text><text class="cls-1" transform="translate(106.39 126.2) rotate(152.34)">E</text><text class="cls-1" transform="translate(98.79 130.16) rotate(159.8)">S</text><text class="cls-1" transform="translate(91.64 132.7) rotate(164.54)"> </text><text class="cls-1" transform="translate(89.21 133.57) rotate(170.32)">D</text><text class="cls-1" transform="matrix(-1, 0.02, -0.02, -1, 79.53, 135.19)">E</text><text class="cls-1" transform="matrix(-1, -0.07, 0.07, -1, 70.9, 135.26)"> </text><text class="cls-1" transform="translate(68.3 135.33) rotate(-169.85)">O</text><text class="cls-1" transform="translate(57.51 133.39) rotate(-160.11)">U</text><text class="cls-1" transform="matrix(-0.88, -0.47, 0.47, -0.88, 48.09, 129.93)">F</text><text class="cls-1" transform="translate(41.13 126.07) rotate(-146.95)"> </text><text class="cls-1" transform="translate(38.88 124.61) rotate(-144.47)"> </text><text class="cls-1" transform="translate(36.69 123.1) rotate(-140.68)">•</text><text class="cls-1" transform="translate(32.42 119.55) rotate(-136.92)"> </text><text class="cls-1" transform="translate(30.44 117.71) rotate(-134.44)"> </text><text class="cls-1" transform="translate(28.79 116.19) rotate(-130.07)">T</text><text class="cls-1" transform="translate(23.83 110.47) rotate(-121.95)">U</text><text class="cls-1" transform="translate(18.62 101.77) rotate(-116.08)"> </text><text class="cls-1" transform="translate(17.29 99.54) rotate(-110.07)">G</text><text class="cls-1" transform="translate(13.81 89.9) rotate(-101.34)">È</text><text class="cls-1" transform="translate(12.09 81.52) rotate(-93.22)">R</text><text class="cls-1" transform="matrix(0.08, -1, 1, 0.08, 11.58, 72.45)">E</text><text class="cls-1" transform="translate(12.31 63.93) rotate(-77.79)">S</text><text class="cls-1" transform="translate(14.01 56.52) rotate(-73.03)"> </text><text class="cls-1" transform="translate(14.58 53.98) rotate(-67.23)">D</text><text class="cls-1" transform="matrix(0.52, -0.86, 0.86, 0.52, 18.39, 44.98)">E</text><text class="cls-1" transform="translate(23 37.63) rotate(-53.55)"> </text><text class="cls-1" transform="translate(24.32 35.43) rotate(-47.31)">O</text><text class="cls-1" transform="translate(31.75 27.38) rotate(-37.69)">U</text><text class="cls-1" transform="translate(39.75 21.26) rotate(-29.27)">F</text><text class="cls-1" transform="translate(46.71 17.47) rotate(-24.57)"> </text><text class="cls-1" transform="translate(49.1 16.32) rotate(-20.75)">•</text><text class="cls-1" transform="translate(54.32 14.38) rotate(-16.92)"> </text></g></g></svg>