<svg xmlns="http://www.w3.org/2000/svg" viewBox="0 0 216.51 214.14"><defs><style>.cls-1{isolation:isolate;}.cls-2{fill:#ffffff;}</style></defs><g id="Calque_2" data-name="Calque 2"><g id="Calque_1-2" data-name="Calque 1"><g id="Calque_2-2" data-name="Calque 2"><g id="Calque_2-2-2" data-name="Calque 2-2"><g class="cls-1"><path class="cls-2" d="M89.89,4.77,86,5.46l-.48-2.75L96.29.81l.48,2.75-3.93.69,1.93,11-3,.52Z"/></g><g class="cls-1"><path class="cls-2" d="M99.91.39l3-.1.26,8.18a3.1,3.1,0,1,0,6.18-.2L109.08.1l3-.1.26,8.17a6.08,6.08,0,1,1-12.16.39Z"/></g><g class="cls-1"><path class="cls-2" d="M127.93,8.11l5.5,1-.91,5.2a7.51,7.51,0,0,1-1.76,1.07,8,8,0,0,1-4.69.54,7.37,7.37,0,0,1-6.21-8.47,7.37,7.37,0,0,1,8.71-5.87,7.5,7.5,0,0,1,5.32,3.76l-2.31,1.62a6.29,6.29,0,0,0-.83-1.16,4.68,4.68,0,0,0-2.66-1.47,4.49,4.49,0,1,0-1.54,8.84A4.69,4.69,0,0,0,128.9,13a3.1,3.1,0,0,0,.88-.41l.3-1.67-2.56-.45Z"/></g><g class="cls-1"><path class="cls-2" d="M139.07,4.13l9.86,3.32-.9,2.66-7-2.37-.86,2.56,5.49,1.86-.86,2.55-5.5-1.85-1,2.85,7.21,2.42-.89,2.66L134.6,17.4ZM142.56.35l2.65.89.56,3.36-2.08-.71Z"/></g><g class="cls-1"><path class="cls-2" d="M153,9.21,158.49,12a4.49,4.49,0,0,1,2.24,6.38,4.37,4.37,0,0,1-2.53,2.36,3.55,3.55,0,0,1-1.45.21l.25,5.93-2.94-1.48-.16-5.22-2.49-1.26L149.34,23l-2.67-1.35Zm2.46,8.62A1.81,1.81,0,0,0,158,17a1.81,1.81,0,0,0-.83-2.55l-2.76-1.39-1.71,3.38Z"/></g><g class="cls-1"><path class="cls-2" d="M166.69,16.58l8.51,5.92-1.6,2.29-6-4.21L166,22.79l4.75,3.3-1.54,2.2L164.48,25l-1.71,2.45L169,31.77l-1.59,2.29-8.67-6Z"/></g><g class="cls-1"><path class="cls-2" d="M172.13,33.1a3.77,3.77,0,0,0,.13,1.14,4.26,4.26,0,0,0,1.3,2.17c1.18,1.07,2.17,1,2.77.36,1.59-1.76-4.29-5.65-1-9.25,1.47-1.63,4.14-1.76,6.5.38a6.69,6.69,0,0,1,2,3.06,6.61,6.61,0,0,1,.24,1.48l-2.81.14a5.67,5.67,0,0,0-.12-.91,3.42,3.42,0,0,0-1-1.71c-1.12-1-2-1-2.49-.37-1.59,1.75,4.29,5.65,1,9.25-1.54,1.7-4.35,1.84-6.79-.37A7.54,7.54,0,0,1,169.57,35a5.25,5.25,0,0,1-.25-1.71Z"/></g><g class="cls-1"><path class="cls-2" d="M191.15,37.79l3.08,4.05a7,7,0,1,1-11.11,8.45l-3.08-4ZM185.34,48.6A4.19,4.19,0,1,0,192,43.53l-1.27-1.66-6.66,5.07Z"/></g><g class="cls-1"><path class="cls-2" d="M200.92,51.38l5,9.08-2.45,1.35-3.56-6.47-2.36,1.3,2.79,5.07L198,63l-2.78-5.07-2.62,1.44L196.23,66l-2.45,1.35-5.09-9.26Z"/></g><g class="cls-1"><path class="cls-2" d="M211.92,75.21a7.28,7.28,0,1,1-9.2-5.07A7.38,7.38,0,0,1,211.92,75.21Zm-11.24,3.5a4.49,4.49,0,1,0,3-5.62A4.47,4.47,0,0,0,200.68,78.71Z"/></g><g class="cls-1"><path class="cls-2" d="M214.71,86.92l.39,3L207,91a3.1,3.1,0,1,0,.81,6.13l8.1-1.07.4,3-8.11,1.07A6.08,6.08,0,1,1,206.6,88Z"/></g><g class="cls-1"><path class="cls-2" d="M216.51,104.05l-.17,10.27-2.79,0,.12-7.27-3.29-.06-.09,5.68-2.79,0,.09-5.68-5.09-.09.05-3Z"/></g><g class="cls-1"><path class="cls-2" d="M208.66,123.94a2.49,2.49,0,1,1-2.06-2.87A2.47,2.47,0,0,1,208.66,123.94Z"/></g><g class="cls-1"><path class="cls-2" d="M209.3,137l1.2-3.81,2.67.84-3.3,10.46-2.66-.83,1.2-3.81-10.66-3.35.9-2.86Z"/></g><g class="cls-1"><path class="cls-2" d="M208.56,147.88l-1.29,2.7L199.9,147a3.1,3.1,0,1,0-2.68,5.57l7.37,3.54-1.29,2.7-7.37-3.55a6.08,6.08,0,0,1,5.26-11Z"/></g><g class="cls-1"><path class="cls-2" d="M188.76,169.17l-3.4,4.43-4.19-3.22a7.75,7.75,0,0,1-.13-2.06,7.91,7.91,0,0,1,1.7-4.4,7.28,7.28,0,1,1,11.55,8.86,7.53,7.53,0,0,1-3.79,2.65,7.94,7.94,0,0,1-2,.32l-.37-2.8a5.58,5.58,0,0,0,1.41-.2,4.6,4.6,0,0,0,2.54-1.67,4.49,4.49,0,1,0-7.12-5.46,4.63,4.63,0,0,0-1,2.15,3.54,3.54,0,0,0,0,1l1.35,1,1.57-2.06Z"/></g><g class="cls-1"><path class="cls-2" d="M187.12,180.83,179.64,188l-1.93-2,5.31-5.12L181.16,179,177,183,175.12,181l4.17-4-2.07-2.15-5.46,5.25-1.94-2,7.62-7.33Zm1.74,4.83-2,1.94-3.22-1L185.2,185Z"/></g><g class="cls-1"><path class="cls-2" d="M176.25,190.84l-5,3.62a4.5,4.5,0,0,1-6.7-1,4.43,4.43,0,0,1-.93-3.33,3.45,3.45,0,0,1,.48-1.38l-5.38-2.51,2.67-1.93,4.7,2.26,2.27-1.63-2.69-3.72,2.43-1.75Zm-8.79-1.78a1.89,1.89,0,0,0,2.22,3.07l2.51-1.81L170,187.25Z"/></g><g class="cls-1"><path class="cls-2" d="M163.36,199.65l-9.19,4.81L152.88,202l6.53-3.43-1.25-2.38L153,198.86l-1.25-2.38,5.12-2.69-1.39-2.65-6.71,3.52-1.3-2.47,9.37-4.91Z"/></g><g class="cls-1"><path class="cls-2" d="M146.16,196.86a4,4,0,0,0-1.06-.41,4.21,4.21,0,0,0-2.54.15c-1.5.55-1.91,1.44-1.6,2.28.82,2.23,7-1.17,8.68,3.4.76,2.05-.36,4.49-3.36,5.59a6.68,6.68,0,0,1-3.62.31,6.15,6.15,0,0,1-1.43-.47l1.18-2.56a5.22,5.22,0,0,0,.86.32,3.53,3.53,0,0,0,2-.09c1.42-.53,1.76-1.29,1.48-2-.82-2.22-7,1.18-8.68-3.39-.8-2.15.39-4.71,3.48-5.85a7.63,7.63,0,0,1,4.17-.37,5.38,5.38,0,0,1,1.64.57Z"/></g><g class="cls-1"><path class="cls-2" d="M133.28,211.56l-5,.86a7,7,0,1,1-2.34-13.76l5-.86Zm-6.9-10.15a4.19,4.19,0,1,0,1.41,8.26l2.07-.35-1.41-8.26Z"/></g><g class="cls-1"><path class="cls-2" d="M116.66,213.94l-10.38.2,0-2.79,7.38-.15,0-2.69-5.79.11,0-2.69,5.78-.12-.06-3-7.58.15-.06-2.79,10.58-.21Z"/></g><g class="cls-1"><path class="cls-2" d="M90.48,212.69a7.28,7.28,0,1,1,8.74-5.83A7.38,7.38,0,0,1,90.48,212.69Zm2.07-11.59a4.49,4.49,0,1,0,3.62,5.21A4.48,4.48,0,0,0,92.55,201.1Z"/></g><g class="cls-1"><path class="cls-2" d="M78.8,209.78l-2.81-1,2.78-7.69A3.1,3.1,0,1,0,73,199l-2.78,7.69-2.82-1L70.15,198a6.08,6.08,0,0,1,11.44,4.13Z"/></g><g class="cls-1"><path class="cls-2" d="M62.88,203.49l-9-4.83,1.31-2.46,6.4,3.42,1.55-2.89-5-2.68,1.31-2.45,5,2.67,2.39-4.48,2.64,1.41Z"/></g><g class="cls-1"><path class="cls-2" d="M45.33,184.57a2.49,2.49,0,1,1,3.51-.35A2.47,2.47,0,0,1,45.33,184.57Z"/></g><g class="cls-1"><path class="cls-2" d="M30.7,175.26l2.56,3.05-2.13,1.8-7.06-8.39,2.13-1.8L28.77,173l8.55-7.19,1.92,2.29Z"/></g><g class="cls-1"><path class="cls-2" d="M21.88,168.8l-1.58-2.54,6.94-4.32A3.1,3.1,0,1,0,24,156.69L17,161l-1.58-2.54,6.93-4.33a5.81,5.81,0,0,1,8.38,1.95,5.81,5.81,0,0,1-1.94,8.38Z"/></g><g class="cls-1"><path class="cls-2" d="M14.52,140.66l-1.91-5.24,5-1.82a7.71,7.71,0,0,1,1.81,1,8,8,0,0,1,2.81,3.79A7.38,7.38,0,0,1,18,148a7.39,7.39,0,0,1-9.44-4.62,7.58,7.58,0,0,1-.2-4.62,7.67,7.67,0,0,1,.81-1.87l2.55,1.19a6.07,6.07,0,0,0-.58,1.3,4.73,4.73,0,0,0,.05,3,4.49,4.49,0,1,0,8.43-3.08,4.55,4.55,0,0,0-1.3-2,3.31,3.31,0,0,0-.8-.56l-1.59.59.89,2.43Z"/></g><g class="cls-1"><path class="cls-2" d="M.55,131.85,0,129.12,2.62,127l.43,2.15Zm5,1.14-2-10.17,2.73-.55,1.46,7.23,2.64-.53L9.21,123.3l2.64-.53L13,128.44l2.94-.58-1.49-7.43,2.74-.55,2.07,10.36Z"/></g><g class="cls-1"><path class="cls-2" d="M3,118.42l-.35-6.17c-.17-3,1.62-5,4.41-5.15a4.4,4.4,0,0,1,3.31,1,3.39,3.39,0,0,1,.9,1.15l5-3.18.18,3.28L12,112.12l.16,2.79,4.58-.26.17,3ZM9.21,112a1.82,1.82,0,0,0-2-1.79,1.81,1.81,0,0,0-1.79,2l.18,3.09,3.78-.22Z"/></g><g class="cls-1"><path class="cls-2" d="M2.43,102.91l.83-10.38,2.79.22-.59,7.39,2.69.21.47-5.78,2.69.21-.46,5.79,3,.24.61-7.58,2.79.22L16.4,104Z"/></g><g class="cls-1"><path class="cls-2" d="M14.05,89.88A3.48,3.48,0,0,0,15,89.2,4.25,4.25,0,0,0,16.21,87c.34-1.56-.2-2.39-1.08-2.58-2.32-.5-2.76,6.55-7.51,5.52C5.47,89.45,4,87.2,4.7,84.08a6.69,6.69,0,0,1,1.67-3.23,6.34,6.34,0,0,1,1.17-.95l1.53,2.37a5,5,0,0,0-.74.56,3.4,3.4,0,0,0-1,1.72C7,86,7.49,86.73,8.27,86.9c2.32.5,2.76-6.55,7.52-5.52,2.24.49,3.77,2.86,3.07,6.07a7.48,7.48,0,0,1-1.93,3.73,5.13,5.13,0,0,1-1.35,1.07Z"/></g><g class="cls-1"><path class="cls-2" d="M8.57,71.06l2-4.69a7,7,0,1,1,12.87,5.4l-2,4.69Zm12.27-.37a4.19,4.19,0,1,0-7.72-3.24l-.81,1.93L20,72.62Z"/></g><g class="cls-1"><path class="cls-2" d="M15.39,55.81l5.4-8.92,2.4,1.45-3.84,6.35,2.32,1.4,3-5L27,52.52l-3,5,2.58,1.56,3.94-6.52L32.9,54l-5.5,9.09Z"/></g><g class="cls-1"><path class="cls-2" d="M30.63,34.4a7.28,7.28,0,1,1,10.7,9.87,7.28,7.28,0,1,1-10.7-9.87Zm8.65,8a4.49,4.49,0,1,0-6.34.26A4.47,4.47,0,0,0,39.28,42.37Z"/></g><g class="cls-1"><path class="cls-2" d="M39.31,26.13l2.37-1.82,5,6.47A3.1,3.1,0,1,0,51.57,27l-5-6.47,2.37-1.83,5,6.47a5.8,5.8,0,0,1-1.09,8.53,5.82,5.82,0,0,1-8.54-1.1Z"/></g><g class="cls-1"><path class="cls-2" d="M53.25,16l9-5,1.36,2.44L57.22,17l1.61,2.87,5-2.78,1.36,2.43-5,2.78,2.49,4.44-2.61,1.46Z"/></g><g class="cls-1"><path class="cls-2" d="M74.42,12.81A2.49,2.49,0,1,1,73,16,2.46,2.46,0,0,1,74.42,12.81Z"/></g></g></g></g></g></svg>