<svg xmlns="http://www.w3.org/2000/svg" viewBox="0 0 211.09 211.13"><defs><style>.cls-1{isolation:isolate;}.cls-2{fill:#ffffff;}</style></defs><g id="Calque_2" data-name="Calque 2"><g id="Calque_1-2" data-name="Calque 1"><g id="Calque_2-2" data-name="Calque 2"><g id="Calque_2-2-2" data-name="Calque 2-2"><g class="cls-1"><path class="cls-2" d="M83,2.39,85.61,2,86.8,9.15a2.76,2.76,0,1,0,5.43-.89l-1.18-7.2L93.68.63l1.18,7.19a5.42,5.42,0,1,1-10.7,1.76Z"/></g><g class="cls-1"><path class="cls-2" d="M98.15.22l2.4,0,6.2,7.61L106.59.05l2.67,0,.25,12.44-2.4.05-6.2-7.61.16,7.73-2.67.05Z"/></g><g class="cls-1"><path class="cls-2" d="M116.05.43l2.81.46,1.76,9.58h.07l4.68-8.54,2.82.46L121.62,14l-3-.48Z"/></g><g class="cls-1"><path class="cls-2" d="M131.16,3.16l5.28,1.57a4,4,0,0,1,3,5.24,3.94,3.94,0,0,1-1.84,2.48,3.36,3.36,0,0,1-1.24.41L137.49,18l-2.81-.83-1-4.56-2.39-.7-1.16,3.91-2.56-.76Zm3.52,7.17a1.62,1.62,0,0,0,2.1-1.14,1.61,1.61,0,0,0-1.13-2.1L133,6.3l-1,3.24Z"/></g><g class="cls-1"><path class="cls-2" d="M147.29,8.7l2.76,1.23-.72,13.32-2.6-1.16.2-3-4.38-2-2.14,2.16-2.6-1.17Zm-.19,7.8.33-4.33-.07,0-3,3.13Z"/></g><g class="cls-1"><path class="cls-2" d="M156.7,13.28,159,14.62,152.8,25.44l-2.32-1.33Z"/></g><g class="cls-1"><path class="cls-2" d="M166,19l1.9,1.48v9.81l4.76-6.09,2.1,1.64-7.66,9.81-1.89-1.48V24.34l-4.76,6.1-2.11-1.64Z"/></g><g class="cls-1"><path class="cls-2" d="M182.51,33.11A6.49,6.49,0,1,1,173.06,42a6.49,6.49,0,1,1,9.45-8.89Zm-7.63,7.19a4,4,0,1,0,.17-5.66A4,4,0,0,0,174.88,40.3Z"/></g><g class="cls-1"><path class="cls-2" d="M192.9,46.05a6.49,6.49,0,1,1-9.17-1.93A6.58,6.58,0,0,1,192.9,46.05ZM184.24,52a4,4,0,1,0,1-5.56A4,4,0,0,0,184.24,52Z"/></g><g class="cls-1"><path class="cls-2" d="M198.25,55.12l2.31,4.71c1.1,2.23.41,4.25-1.19,5a2.62,2.62,0,0,1-2.19.12,3,3,0,0,1-.87-.5,3.34,3.34,0,0,1,0,1.3,3,3,0,0,1-1.66,2.1c-1.74.85-3.91.11-5.07-2.26l-2.47-5Zm-6.71,9.33a1.52,1.52,0,1,0,2.72-1.33l-1.21-2.48L190.33,62Zm4.64-2.67a1.25,1.25,0,1,0,2.23-1.09l-1.06-2.16-2.23,1.1Z"/></g><g class="cls-1"><path class="cls-2" d="M200.63,75.38a2.22,2.22,0,1,1-2.8-1.44A2.2,2.2,0,0,1,200.63,75.38Z"/></g><g class="cls-1"><path class="cls-2" d="M208.77,83.24l.43,2.64L202,87a2.77,2.77,0,1,0,.88,5.46l7.21-1.17.43,2.64-7.21,1.17a5.44,5.44,0,0,1-1.74-10.74Z"/></g><g class="cls-1"><path class="cls-2" d="M210.87,98.37l0,2.4-7.6,6.2,7.73-.15.05,2.66-12.44.25-.05-2.4,7.61-6.2-7.73.16,0-2.67Z"/></g><g class="cls-1"><path class="cls-2" d="M210.61,116.24l-.45,2.81-9.55,1.77v.07l8.53,4.66-.45,2.8-11.56-6.52.47-3Z"/></g><g class="cls-1"><path class="cls-2" d="M207.89,131.39l-1.59,5.28a4,4,0,0,1-5.25,3,3.92,3.92,0,0,1-2.47-1.85,3.3,3.3,0,0,1-.41-1.24L193,137.7l.84-2.81,4.55-1,.72-2.38-3.92-1.18.77-2.55Zm-7.18,3.51a1.69,1.69,0,0,0,3.24,1l.79-2.64-3.24-1Z"/></g><g class="cls-1"><path class="cls-2" d="M202.29,147.5l-1.24,2.76-13.32-.75,1.17-2.59,3,.2,2-4.38-2.15-2.14,1.17-2.59Zm-7.8-.21,4.33.34,0-.06-3.12-3Z"/></g><g class="cls-1"><path class="cls-2" d="M197.71,156.9l-1.33,2.32L185.55,153l1.33-2.31Z"/></g><g class="cls-1"><path class="cls-2" d="M192,166.23l-1.48,1.89-9.82,0,6.09,4.78L185.09,175l-9.79-7.68,1.48-1.89,9.82,0-6.08-4.77,1.64-2.1Z"/></g><g class="cls-1"><path class="cls-2" d="M177.83,182.68a6.49,6.49,0,1,1,.49-9.35A6.57,6.57,0,0,1,177.83,182.68ZM170.66,175a4,4,0,1,0,5.65.18A4,4,0,0,0,170.66,175Z"/></g><g class="cls-1"><path class="cls-2" d="M164.86,193.05a6.49,6.49,0,1,1,1.94-9.16A6.57,6.57,0,0,1,164.86,193.05ZM159,184.38a4,4,0,1,0,5.55,1.06A4,4,0,0,0,159,184.38Z"/></g><g class="cls-1"><path class="cls-2" d="M155.81,198.4l-4.72,2.31c-2.24,1.09-4.27.39-5.05-1.2a2.65,2.65,0,0,1-.12-2.2,2.81,2.81,0,0,1,.51-.87,3.39,3.39,0,0,1-1.31,0,3,3,0,0,1-2.1-1.67c-.85-1.74-.11-3.91,2.27-5.08l5-2.46Zm-9.34-6.74a1.52,1.52,0,1,0,1.33,2.72l2.48-1.21L149,190.45Zm2.67,4.65a1.26,1.26,0,1,0,1.09,2.24l2.16-1.06-1.09-2.24Z"/></g><g class="cls-1"><path class="cls-2" d="M135.51,200.72a2.22,2.22,0,1,1,1.44-2.79A2.2,2.2,0,0,1,135.51,200.72Z"/></g><g class="cls-1"><path class="cls-2" d="M127.67,208.85l-2.64.42-1.17-7.21a2.77,2.77,0,1,0-5.45.88l1.16,7.22-2.64.42-1.16-7.21a5.44,5.44,0,0,1,10.73-1.74Z"/></g><g class="cls-1"><path class="cls-2" d="M112.53,210.91l-2.4.05-6.19-7.61.15,7.73-2.67,0-.24-12.44,2.39-.05,6.2,7.61-.15-7.73,2.66-.05Z"/></g><g class="cls-1"><path class="cls-2" d="M94.63,210.66l-2.81-.45-1.76-9.58H90l-4.68,8.54-2.82-.46,6.57-11.57,3,.48Z"/></g><g class="cls-1"><path class="cls-2" d="M79.47,207.89l-5.29-1.6a4,4,0,0,1-3-5.27,4,4,0,0,1,1.86-2.47,3.19,3.19,0,0,1,1.24-.41L73.19,193l2.81.85,1,4.57,2.39.72,1.18-3.92,2.56.77Zm-3.5-7.2a1.69,1.69,0,0,0-1,3.24l2.65.8,1-3.24Z"/></g><g class="cls-1"><path class="cls-2" d="M63.42,202.27,60.67,201l.74-13.3L64,188.9l-.2,3,4.37,2,2.14-2.16,2.59,1.17Zm.21-7.79-.34,4.32.07,0,3-3.12Z"/></g><g class="cls-1"><path class="cls-2" d="M54.05,197.62l-2.31-1.34L58,185.5l2.31,1.34Z"/></g><g class="cls-1"><path class="cls-2" d="M44.69,192l-1.89-1.49,0-9.86L38,186.71l-2.1-1.65,7.71-9.83,1.9,1.49,0,9.85,4.79-6.11,2.11,1.66Z"/></g><g class="cls-1"><path class="cls-2" d="M28.3,177.68a6.48,6.48,0,1,1,9.33.52A6.56,6.56,0,0,1,28.3,177.68ZM36,170.55a4,4,0,1,0-.2,5.64A4,4,0,0,0,36,170.55Z"/></g><g class="cls-1"><path class="cls-2" d="M17.91,164.74a6.49,6.49,0,1,1,9.16,2A6.58,6.58,0,0,1,17.91,164.74Zm8.69-5.87a4,4,0,1,0-1.07,5.55A4,4,0,0,0,26.6,158.87Z"/></g><g class="cls-1"><path class="cls-2" d="M12.61,155.65l-2.3-4.72c-1.08-2.24-.38-4.26,1.22-5a2.62,2.62,0,0,1,2.19-.12,2.65,2.65,0,0,1,.86.51,3.6,3.6,0,0,1,0-1.31,3,3,0,0,1,1.67-2.09c1.74-.85,3.91-.1,5.06,2.28l2.45,5Zm2.1-6.66a1.26,1.26,0,1,0-2.24,1.09l1,2.16,2.24-1.09Zm4.64-2.65a1.52,1.52,0,1,0-2.72,1.32l1.21,2.48,2.72-1.32Z"/></g><g class="cls-1"><path class="cls-2" d="M10.3,135.36a2.22,2.22,0,1,1,2.8,1.45A2.21,2.21,0,0,1,10.3,135.36Z"/></g><g class="cls-1"><path class="cls-2" d="M2.19,127.53l-.42-2.64L9,123.73a2.77,2.77,0,1,0-.88-5.46L.88,119.44.46,116.8l7.21-1.17a5.44,5.44,0,0,1,1.74,10.74Z"/></g><g class="cls-1"><path class="cls-2" d="M.18,112.33l0-2.4,7.63-6.17L0,103.89l0-2.67,12.44-.2,0,2.4-7.63,6.17,7.73-.13,0,2.67Z"/></g><g class="cls-1"><path class="cls-2" d="M.44,94.51.89,91.7l9.58-1.76v-.07L1.94,85.19l.46-2.82L14,88.94l-.48,3Z"/></g><g class="cls-1"><path class="cls-2" d="M3.26,79.37l1.6-5.27a4,4,0,0,1,5.26-3A4,4,0,0,1,12.59,73a3.35,3.35,0,0,1,.4,1.24l5.17-1.13-.85,2.81-4.56.94L12,79.24l3.91,1.19L15.17,83Zm7.19-3.49a1.61,1.61,0,0,0-1.13-2.1,1.61,1.61,0,0,0-2.1,1.12l-.8,2.64,3.23,1Z"/></g><g class="cls-1"><path class="cls-2" d="M8.9,63.25l1.26-2.75,13.31.79-1.18,2.59-3-.21-2,4.37,2.14,2.15-1.18,2.59Zm7.81.23-4.34-.35,0,.07,3.1,3Z"/></g><g class="cls-1"><path class="cls-2" d="M13.56,53.94l1.33-2.31,10.77,6.24-1.34,2.31Z"/></g><g class="cls-1"><path class="cls-2" d="M19.3,44.6l1.48-1.88,9.82.05L24.53,38l1.65-2.09L36,43.59l-1.49,1.89-9.81,0,6.06,4.79-1.65,2.09Z"/></g><g class="cls-1"><path class="cls-2" d="M33.52,28.17a6.49,6.49,0,1,1,8.84,9.49,6.49,6.49,0,1,1-8.84-9.49Zm7.14,7.67a4,4,0,1,0-5.65-.2A4,4,0,0,0,40.66,35.84Z"/></g><g class="cls-1"><path class="cls-2" d="M46.5,17.85a6.5,6.5,0,1,1-2,9.16A6.58,6.58,0,0,1,46.5,17.85Zm5.87,8.7a4,4,0,1,0-5.56-1.08A4,4,0,0,0,52.37,26.55Z"/></g><g class="cls-1"><path class="cls-2" d="M55.61,12.54l4.72-2.28c2.24-1.09,4.26-.38,5,1.22a2.66,2.66,0,0,1,.12,2.19,2.86,2.86,0,0,1-.52.86,3.6,3.6,0,0,1,1.31,0,3,3,0,0,1,2.09,1.68c.84,1.74.09,3.9-2.3,5.05l-5,2.44Zm6.65,2.11a1.25,1.25,0,1,0-1.08-2.24L59,13.46,60.1,15.7ZM64.9,19.3a1.52,1.52,0,1,0-1.32-2.72l-2.48,1.2,1.32,2.72Z"/></g><g class="cls-1"><path class="cls-2" d="M75.85,10.32a2.21,2.21,0,1,1-1.44,2.78A2.19,2.19,0,0,1,75.85,10.32Z"/></g></g></g></g></g></svg>