<svg xmlns="http://www.w3.org/2000/svg" viewBox="0 0 144.12 144.13"><defs><style>.cls-1{font-size:11.85px;fill:#ffffff;font-family:TTNormsPro-Bold, TT Norms Pro;font-weight:700;}</style></defs><title>noob_1</title><g id="Calque_2" data-name="Calque 2"><g id="Calque_2-2" data-name="Calque 2"><text class="cls-1" transform="translate(57.37 11.64) rotate(-9.32)">U</text><text class="cls-1" transform="matrix(1, -0.02, 0.02, 1, 66.23, 10.16)">N</text><text class="cls-1" transform="matrix(1, 0.08, -0.08, 1, 75.58, 10.16)"> </text><text class="cls-1" transform="matrix(0.99, 0.16, -0.16, 0.99, 77.56, 10.17)">V</text><text class="cls-1" transform="translate(85.75 11.45) rotate(16.57)">R</text><text class="cls-1" transform="translate(93.52 13.73) rotate(24.17)">A</text><text class="cls-1" transform="matrix(0.87, 0.5, -0.5, 0.87, 101.09, 17.24)">I</text><text class="cls-1" transform="translate(104.38 19.14) rotate(32.62)"> </text><text class="cls-1" transform="translate(106.42 20.24) rotate(37.99)">N</text><text class="cls-1" transform="translate(113.75 25.91) rotate(46.73)">O</text><text class="cls-1" transform="translate(120.46 33.01) rotate(55.7)">O</text><text class="cls-1" transform="translate(125.95 41.14) rotate(63.88)">B</text><text class="cls-1" transform="matrix(0.36, 0.93, -0.93, 0.36, 129.37, 48.38)"> </text><text class="cls-1" transform="translate(130.27 50.57) rotate(72.1)">•</text><text class="cls-1" transform="matrix(0.25, 0.97, -0.97, 0.25, 131.77, 55.33)"> </text><text class="cls-1" transform="matrix(0.16, 0.99, -0.99, 0.16, 132.51, 57.52)">U</text><text class="cls-1" transform="matrix(0.02, 1, -1, 0.02, 133.96, 66.38)">N</text><text class="cls-1" transform="matrix(-0.08, 1, -1, -0.08, 133.95, 75.72)"> </text><text class="cls-1" transform="translate(133.94 77.71) rotate(99.07)">V</text><text class="cls-1" transform="translate(132.65 85.89) rotate(106.68)">R</text><text class="cls-1" transform="translate(130.34 93.65) rotate(114.29)">A</text><text class="cls-1" transform="matrix(-0.5, 0.87, -0.87, -0.5, 126.82, 101.22)">I</text><text class="cls-1" transform="matrix(-0.54, 0.84, -0.84, -0.54, 124.9, 104.52)"> </text><text class="cls-1" transform="translate(123.8 106.56) rotate(128.12)">N</text><text class="cls-1" transform="translate(118.13 113.86) rotate(136.84)">O</text><text class="cls-1" transform="translate(111.01 120.56) rotate(145.81)">O</text><text class="cls-1" transform="matrix(-0.9, 0.44, -0.44, -0.9, 102.88, 126.03)">B</text><text class="cls-1" transform="translate(95.63 129.44) rotate(158.79)"> </text><text class="cls-1" transform="translate(93.43 130.34) rotate(162.21)">•</text><text class="cls-1" transform="matrix(-0.97, 0.25, -0.25, -0.97, 88.68, 131.83)"> </text><text class="cls-1" transform="matrix(-0.99, 0.16, -0.16, -0.99, 86.48, 132.56)">U</text><text class="cls-1" transform="matrix(-1, 0.02, -0.02, -1, 77.62, 133.99)">N</text><text class="cls-1" transform="translate(68.27 133.97) rotate(-175.42)"> </text><text class="cls-1" transform="matrix(-0.99, -0.16, 0.16, -0.99, 66.29, 133.96)">V</text><text class="cls-1" transform="matrix(-0.96, -0.29, 0.29, -0.96, 58.11, 132.64)">R</text><text class="cls-1" transform="matrix(-0.91, -0.41, 0.41, -0.91, 50.35, 130.33)">A</text><text class="cls-1" transform="translate(42.8 126.79) rotate(-150.02)">I</text><text class="cls-1" transform="matrix(-0.84, -0.54, 0.54, -0.84, 39.52, 124.88)"> </text><text class="cls-1" transform="matrix(-0.79, -0.62, 0.62, -0.79, 37.48, 123.77)">N</text><text class="cls-1" transform="matrix(-0.68, -0.73, 0.73, -0.68, 30.17, 118.07)">O</text><text class="cls-1" transform="translate(23.48 110.95) rotate(-124.09)">O</text><text class="cls-1" transform="translate(18.03 102.8) rotate(-115.9)">B</text><text class="cls-1" transform="translate(14.63 95.55) rotate(-111.1)"> </text><text class="cls-1" transform="translate(13.74 93.34) rotate(-107.68)">•</text><text class="cls-1" transform="translate(12.26 88.59) rotate(-104.25)"> </text><text class="cls-1" transform="matrix(-0.16, -0.99, 0.99, -0.16, 11.53, 86.39)">U</text><text class="cls-1" transform="translate(10.13 77.52) rotate(-90.93)">N</text><text class="cls-1" transform="translate(10.15 68.2) rotate(-85.33)"> </text><text class="cls-1" transform="matrix(0.16, -0.99, 0.99, 0.16, 10.17, 66.21)">V</text><text class="cls-1" transform="translate(11.5 58.04) rotate(-73.12)">R</text><text class="cls-1" transform="translate(13.83 50.27) rotate(-65.5)">A</text><text class="cls-1" transform="translate(17.38 42.74) rotate(-59.93)">I</text><text class="cls-1" transform="translate(19.3 39.44) rotate(-57.06)"> </text><text class="cls-1" transform="translate(20.41 37.41) rotate(-51.69)">N</text><text class="cls-1" transform="translate(26.13 30.11) rotate(-42.95)">O</text><text class="cls-1" transform="translate(33.26 23.44) rotate(-33.98)">O</text><text class="cls-1" transform="translate(41.42 17.99) rotate(-25.79)">B</text><text class="cls-1" transform="translate(48.68 14.61) rotate(-20.99)"> </text><text class="cls-1" transform="matrix(0.95, -0.3, 0.3, 0.95, 50.86, 13.73)">•</text><text class="cls-1" transform="matrix(0.97, -0.24, 0.24, 0.97, 55.62, 12.26)"> </text></g></g></svg>