<svg width="131" height="188" viewBox="0 0 131 188" fill="none" xmlns="http://www.w3.org/2000/svg">
<path d="M67.0728 132.199C72.0133 101.121 122.514 109.15 129.513 65.123C134.042 36.6352 113.35 8.12095 73.2084 1.73949C47.0515 -2.41875 29.5246 5.94698 17.2184 14.8772C10.2738 20.1457 4.75952 26.4383 0.375472 33.9726L31.5726 54.8636C34.003 51.2671 37.128 48.312 40.7298 45.6983C46.7328 41.3422 55.5846 37.4389 67.2387 39.2915C81.4826 41.5559 89.1059 52.0612 87.6649 61.1255C84.3301 82.1028 38.2676 79.5596 32.6684 114.781C32.1331 118.148 32.2394 120.82 32.6458 123.274C32.6989 124.61 33.0522 125.728 33.4055 126.847L67.0728 132.199ZM22.2561 163.575C20.4034 175.229 28.0268 185.735 39.6808 187.587C51.3349 189.44 61.8402 181.817 63.6929 170.163C65.5455 158.508 57.9222 148.003 46.2681 146.151C34.6141 144.298 24.1088 151.921 22.2561 163.575Z" fill="url(#paint0_linear)"/>
<defs>
<linearGradient id="paint0_linear" x1="29.2642" y1="55.3559" x2="163.355" y2="96.645" gradientUnits="userSpaceOnUse">
<stop stop-color="#FF6644"/>
<stop offset="1" stop-color="#FF9D6F"/>
</linearGradient>
</defs>
</svg>
