<svg width="476" height="181" viewBox="0 0 476 181" fill="none" xmlns="http://www.w3.org/2000/svg">
<path d="M313.468 93.7008C311.794 97.4334 309.632 100.924 307.039 104.081C303.85 108.1 300.423 110.147 297.09 110.412C296.372 110.487 295.646 110.409 294.961 110.183C294.275 109.957 293.644 109.588 293.11 109.1C292.082 107.969 291.489 106.507 291.436 104.976C291.357 102.665 291.564 100.353 292.052 98.0935L294.706 82.9158C292.609 89.1482 289.656 95.055 285.931 100.465C280.903 107.754 275.629 111.907 271.041 112.228C267.279 112.489 264.139 110.743 261.863 107.38C259.952 104.185 258.889 100.55 258.778 96.8233C258.375 90.132 259.499 83.4369 262.064 77.2493C264.576 71.083 268.323 65.5026 273.073 60.8551C278.442 55.5987 284.623 52.5748 290.542 52.2041C292.148 52.1354 293.755 52.2812 295.322 52.6377C296.864 53.0719 298.33 53.7432 299.669 54.6276L303.501 32.8476L295.008 29.4824L295.033 29.0534L314.002 23.1276L314.428 23.1529L301.46 97.1761C301.115 98.7237 300.929 100.303 300.906 101.889C301.001 103.186 301.468 103.806 302.65 103.725C304.058 103.625 306.107 102.079 308.425 99.4178C310.012 97.5024 311.465 95.4776 312.771 93.3582L313.468 93.7008ZM274.683 105.395C278.025 105.173 281.64 102.643 285.132 98.3834C287.794 94.9424 290.01 91.1756 291.728 87.1731C293.556 83.2327 294.983 79.117 295.99 74.8885C297.042 70.6582 297.802 66.3595 298.262 62.0234C297.526 56.3087 294.991 53.5436 290.693 53.838C285.954 54.1601 281.097 57.4238 277.03 62.9188C273.765 67.6227 271.336 72.8604 269.852 78.3991C268.361 83.8876 267.75 89.5802 268.041 95.2624C268.559 102.503 270.71 105.622 274.686 105.352L274.683 105.395Z" fill="white"/>
<path d="M321.316 96.2097L327.954 59.0243L320.357 55.3461L320.329 54.9033L338.634 48.992L339.063 48.9636L330.756 95.0898C330.412 96.6375 330.226 98.2168 330.202 99.8027C330.287 101.099 330.764 101.719 331.946 101.638C333.343 101.549 335.403 99.9922 337.71 97.3415C339.299 95.4272 340.751 93.4023 342.056 91.282L342.739 91.6775C341.058 95.4234 338.895 98.9314 336.307 102.112C333.118 106.131 329.691 108.177 326.305 108.429C325.593 108.513 324.871 108.445 324.187 108.23C323.502 108.016 322.87 107.658 322.332 107.182C321.301 106.052 320.703 104.59 320.647 103.057C320.596 100.756 320.821 98.457 321.316 96.2097ZM337.23 40.2461C336.41 40.3113 335.585 40.2087 334.806 39.9443C334.027 39.6799 333.309 39.2593 332.696 38.7079C332.07 38.1706 331.558 37.5117 331.191 36.7707C330.825 36.0296 330.61 35.2217 330.562 34.3954C330.464 32.5826 331.067 30.8019 332.245 29.4257C333.422 28.0494 335.083 27.1841 336.88 27.0105C337.7 26.955 338.522 27.0622 339.299 27.3262C340.077 27.5901 340.796 28.0056 341.414 28.5488C342.032 29.0921 342.538 29.7525 342.902 30.4923C343.267 31.2322 343.483 32.0369 343.537 32.8606C343.596 33.7684 343.474 34.6788 343.179 35.5389C342.885 36.3989 342.423 37.1915 341.821 37.8706C340.663 39.2418 339.012 40.096 337.23 40.2461Z" fill="white"/>
<path d="M114.94 89.589C115.179 91.1443 115.159 92.7289 114.88 94.2774C114.327 97.9594 112.696 101.392 110.193 104.137C104.868 110.279 98.7758 110.682 94.0548 108.692L119.297 79.6883L118.051 78.3124C117.021 77.1438 115.924 76.0369 114.766 74.9972C109.482 70.3702 102.59 68.038 95.5987 68.5117C88.6078 68.9854 82.0888 72.2264 77.4703 77.5244C73.5566 82.0579 71.2074 87.7435 70.7741 93.7311C70.3408 99.7186 71.8467 105.686 75.0665 110.742C71.9586 112.565 68.4138 113.498 64.8163 113.439C58.8254 113.214 52.8754 109.73 47.4197 103.284L54.4132 94.7873L72.2656 71.1792L55.0754 72.3139L37.6797 95.2495L34.675 50.9397L20.1354 51.9514L25.2158 127.732L39.7541 126.741L38.9644 114.265L40.1238 112.741C48.7891 122.132 57.4206 124.785 63.7345 125.159L64.4491 125.201C71.3156 125.318 78.0379 123.215 83.6257 119.201C89.2722 122.665 95.9606 123.995 102.493 122.952C109.026 121.909 114.975 118.562 119.277 113.51C123.179 109.074 125.875 103.699 127.104 97.9065C127.619 95.523 127.816 93.081 127.689 90.645L114.94 89.589ZM86.8239 86.4934C90.7946 81.9182 96.8181 81.586 101.539 83.5765L85.9215 101.549C83.3342 97.1127 82.8531 91.0687 86.8239 86.4934Z" fill="white"/>
<path d="M144.963 81.5185C144.855 79.8871 146.358 78.1575 150.13 77.9072C153.173 77.6434 156.232 78.1958 158.994 79.5081C160.15 80.0398 161.246 80.6964 162.261 81.4663L170.255 71.598C168.604 70.1795 166.774 68.9857 164.812 68.0474C160.001 65.6124 154.618 64.5494 149.249 64.9738C135.796 65.8885 128.773 73.9742 129.347 82.6387C130.476 99.9236 157.4 97.0515 157.758 103.002C157.899 105.163 156.396 106.903 151.55 107.23C147.934 107.524 144.311 106.748 141.128 104.999C139.676 104.27 138.336 103.335 137.148 102.223L129.158 112.017C130.983 113.803 133.058 115.311 135.318 116.492C140.546 119.373 146.492 120.671 152.437 120.228C166.958 119.172 174.009 110.98 173.362 101.913C172.205 84.5623 145.417 87.4748 144.963 81.5185Z" fill="white"/>
<path d="M240.635 52.7373C242.812 52.6038 244.852 51.6201 246.318 49.9962C247.785 48.3722 248.562 46.2364 248.485 44.0442C248.297 41.8717 247.264 39.8614 245.612 38.4484C243.96 37.0354 241.821 36.3334 239.659 36.4946C237.481 36.6256 235.441 37.6066 233.973 39.2283C232.504 40.8501 231.724 42.9844 231.798 45.1764C231.989 47.3506 233.023 49.3621 234.676 50.7767C236.329 52.1912 238.47 52.8955 240.635 52.7373Z" fill="white"/>
<path d="M248.426 59.2719L233.896 60.2578L237.459 113.303L251.988 112.317L248.426 59.2719Z" fill="white"/>
<path d="M202.28 92.3378L208.939 84.2414L226.828 60.7431L209.638 61.8778L192.243 84.8026L189.231 40.4385L174.703 41.4295L179.784 117.199L194.322 116.219L193.487 103.773L195.031 101.712C201.686 108.154 210.196 114.157 220.361 114.758C223.116 114.914 225.879 114.675 228.568 114.05L227.762 102.036C221.494 104.161 214.013 103.987 202.28 92.3378Z" fill="white"/>
<path fill-rule="evenodd" clip-rule="evenodd" d="M11.6604 9.95109C5.22056 10.3993 0.363369 15.9832 0.811609 22.4231L10.0437 155.061C10.4919 161.501 16.0758 166.358 22.5157 165.91L74.9877 162.257C81.4276 161.809 86.2848 156.225 85.8366 149.785L76.6045 17.1477C76.1563 10.7078 70.5723 5.8506 64.1324 6.29884L11.6604 9.95109ZM43.3033 12.1425C42.9009 12.1705 42.5973 12.5195 42.6253 12.922C42.6533 13.3245 43.0023 13.628 43.4048 13.6C43.8073 13.572 44.1109 13.223 44.0829 12.8205C44.0548 12.418 43.7058 12.1144 43.3033 12.1425ZM33.8797 13.53C33.8517 13.1275 34.1553 12.7785 34.5578 12.7505L40.388 12.3447C40.7905 12.3166 41.1395 12.6202 41.1675 13.0227C41.1955 13.4252 40.8919 13.7742 40.4895 13.8022L34.6592 14.208C34.2567 14.236 33.9077 13.9325 33.8797 13.53ZM20.7104 13.7149C20.6748 13.2037 20.7284 12.7068 20.8579 12.2395L11.8638 12.8656C7.03385 13.2017 3.39096 17.3897 3.72713 22.2196L12.9592 154.857C13.2954 159.687 17.4833 163.33 22.3132 162.994L74.7852 159.342C79.6151 159.005 83.258 154.817 82.9219 149.987L73.6898 17.3499C73.3536 12.52 69.1657 8.87713 64.3357 9.21331L55.3412 9.83936C55.5342 10.2842 55.6561 10.7688 55.6917 11.2801C55.8598 13.695 54.0383 15.789 51.6234 15.9571L25.3874 17.7832C22.9724 17.9513 20.8785 16.1299 20.7104 13.7149Z" fill="white"/>
<path d="M468.238 78.9539C468.239 77.955 467.846 76.9964 467.145 76.289C466.444 75.5815 465.492 75.183 464.499 75.1813C463.505 75.1796 462.552 75.5747 461.848 76.2798C461.145 76.9848 460.749 77.9421 460.747 78.9409C460.716 116.055 434.066 118.254 432.947 118.371L432.591 118.415L419.706 120.407C418.923 120.531 418.198 120.898 417.633 121.457L380.221 158.887L389.58 126.963C389.756 126.361 389.779 125.724 389.647 125.111C389.516 124.497 389.233 123.927 388.826 123.451C388.418 122.975 387.899 122.61 387.315 122.388C386.731 122.166 386.102 122.094 385.483 122.18L333.695 129.294C332.712 129.429 331.823 129.95 331.222 130.744C330.622 131.538 330.36 132.539 330.494 133.527C330.627 134.516 331.146 135.41 331.936 136.014C332.725 136.618 333.721 136.881 334.704 136.747L380.795 130.414L369.002 170.824C368.769 171.624 368.808 172.479 369.111 173.255C369.414 174.031 369.965 174.683 370.678 175.11C371.19 175.422 371.771 175.604 372.37 175.64C372.895 175.672 373.422 175.591 373.914 175.403C374.407 175.215 374.854 174.925 375.227 174.55L422.107 127.662L433.664 125.86C436.797 125.54 468.156 121.316 468.238 78.9539Z" fill="white"/>
<path d="M312.184 93.3689C310.681 95.6063 309.275 97.6227 307.744 99.3218C305.396 101.927 303.316 103.439 301.916 103.511C300.732 103.573 300.267 102.95 300.2 101.657C300.155 100.796 300.389 99.0566 300.821 96.983L314.924 23.5926L314.493 23.615L295.354 29.2529L295.376 29.6836L303.868 33.1284L299.702 54.7211C298.473 53.9213 297.028 53.1328 295.385 52.6785C293.748 52.3318 292.224 52.0872 290.608 52.1713C284.687 52.4793 278.469 55.3938 273.014 60.5357C268.377 64.7715 264.463 70.481 261.762 76.6673C259.067 82.9612 257.793 89.6129 258.129 96.073C258.348 100.272 259.286 103.786 261.053 106.609C263.278 109.948 266.393 111.729 270.161 111.533C274.791 111.292 280.086 107.238 285.219 100.062C288.746 95.236 291.895 89.3503 294.256 82.8579L291.368 97.9065C290.771 100.96 290.555 103.023 290.645 104.746C290.734 106.468 291.351 107.948 292.263 108.872C293.174 109.796 294.602 110.262 296.217 110.178C299.555 110.004 303.013 107.989 306.262 104.041C308.604 101.328 310.907 97.8617 312.853 93.766L312.184 93.3689ZM267.446 94.6167C267.16 89.1256 267.946 83.4709 269.491 77.8846C271.239 72.0718 273.77 66.7581 276.9 62.6007C281.046 57.203 285.955 54.0327 290.693 53.7863C294.999 53.5622 297.519 56.3461 298.139 62.0357C297.609 66.3816 296.757 70.7443 295.672 74.7952C294.491 79.0671 293.089 83.2425 291.228 86.902C289.293 91.2131 286.894 94.9005 284.461 97.942C280.9 102.122 277.249 104.579 273.911 104.752C269.927 104.96 267.821 101.83 267.446 94.6167ZM342.103 38.6965C343.328 37.3372 343.992 35.5753 343.897 33.745C343.807 32.0223 343.083 30.5485 341.837 29.4258C340.591 28.3031 339.05 27.7355 337.327 27.8251C335.605 27.9147 333.921 28.758 332.696 30.1172C331.472 31.4765 330.808 33.2384 330.903 35.0687C330.992 36.7914 331.717 38.2651 332.963 39.3879C334.209 40.5106 335.75 41.0782 337.472 40.9886C339.195 40.899 340.879 40.0557 342.103 38.6965ZM319.982 103.219C320.071 104.942 320.688 106.421 321.6 107.346C322.511 108.27 323.939 108.735 325.554 108.651C328.892 108.478 332.35 106.463 335.599 102.515C337.941 99.8021 340.244 96.3356 342.19 92.2398L341.521 91.8428C340.018 94.0801 338.612 96.0966 337.081 97.7956C334.733 100.401 332.653 101.913 331.253 101.985C330.069 102.047 329.604 101.423 329.537 100.131C329.492 99.27 329.726 97.5305 330.158 95.4568L339.218 49.6425L338.787 49.6649L320.402 55.2636L320.424 55.6943L327.964 59.5125L320.705 96.3803C320.109 99.4343 319.892 101.497 319.982 103.219ZM380.783 54.9294C381.326 57.0603 381.795 59.8429 381.668 63.6281L381.883 63.6169C383.697 63.1987 385.59 62.2365 386.922 60.8717C388.464 59.388 389.129 57.6261 389.022 55.5804C388.871 52.6733 387.563 50.3663 385.014 49.0954C383.122 48.0063 380.397 47.5003 377.275 47.6627C371.783 47.9484 366.2 50.6139 361.262 55.2972C357.157 59.3973 353.544 64.6593 351.251 70.3925C348.856 76.2389 347.668 82.4544 347.96 88.0531C348.245 93.5442 349.993 98.0955 352.757 101.406C355.967 105.018 360.381 106.84 365.549 106.571C369.855 106.347 374.072 104.4 377.769 100.753C380.74 97.6835 383.446 93.6563 385.369 89.1298L384.701 88.7328C379.823 96.6517 374.624 100.485 368.918 100.782C364.934 100.989 361.824 99.3153 359.815 95.9652C358.388 93.4484 357.45 89.9345 357.22 85.5201C356.979 80.8904 357.379 76.1194 358.43 71.4225C359.567 66.2893 361.383 61.7685 363.68 58.1943C366.754 52.9602 370.603 50.1689 374.479 49.9673C377.602 49.8049 379.63 51.4267 380.783 54.9294ZM404.251 53.1687C400.464 57.1443 397.061 62.2875 394.876 68.0151C392.588 73.8559 391.497 79.8505 391.782 85.3415C392.074 90.9403 393.833 95.7069 396.704 99.0123C399.92 102.731 404.549 104.542 409.825 104.267C415.316 103.982 420.678 101.22 425.293 96.5534C429.081 92.5777 432.484 87.4346 434.669 81.707C436.956 75.8662 438.048 69.8716 437.762 64.3805C437.471 58.7818 435.712 54.0152 432.841 50.7098C429.624 46.9906 424.996 45.1802 419.72 45.4546C414.229 45.7403 408.867 48.5023 404.251 53.1687ZM402.82 96.211C402.142 93.5473 401.532 90.1244 401.308 85.8176C401.056 80.9726 401.642 75.652 402.779 70.5188C403.904 65.1703 405.8 60.1055 408.182 56.0951C411.665 50.4079 415.707 47.1748 419.691 46.9676C423.029 46.7939 425.3 48.9429 426.725 53.511C427.403 56.1747 428.013 59.5977 428.237 63.9044C428.489 68.7495 427.902 74.07 426.766 79.2032C425.641 84.5518 423.745 89.6165 421.362 93.627C417.88 99.3141 413.838 102.547 409.854 102.755C406.516 102.928 404.245 100.779 402.82 96.211Z" fill="white"/>
</svg>
