<svg width="299" height="148" viewBox="0 0 299 148" fill="none" xmlns="http://www.w3.org/2000/svg">
<path d="M51.7509 35.9062C45.7934 31.4136 38.3662 35.5156 33.4585 39.8687C27.4485 45.1707 22.4621 52.2585 18.1842 59.151C9.36604 73.3266 3.48727 89.5673 1.15151 106.394C0.547885 110.524 0.180462 114.71 0.0492391 118.895C-0.0819835 123.137 -0.0557391 127.546 1.49269 131.536C4.37958 139.015 12.043 142.586 18.8666 144.791C35.4006 150.177 53.4306 147.972 69.7022 142.559C96.6028 133.601 120.223 114.793 136.809 90.6835C145.234 78.4611 151.847 64.8157 156.178 50.361C158.382 43.022 160.219 35.2923 160.849 27.5627C161.505 19.3028 159.485 11.4616 153.238 6.13176C140.142 -5.00228 122.69 1.05307 109.358 8.33624C96.1041 15.5915 84.0842 25.3582 73.8488 36.855C63.6922 48.2681 55.2677 61.4113 49.074 75.6427C45.9771 82.7864 43.4314 90.1812 41.5156 97.7713C40.597 101.371 39.7309 105.222 40.387 108.961C41.0432 112.7 43.4052 115.407 46.5283 117.109C53.2469 120.793 61.5926 121.63 69.0461 120.96C76.9456 120.263 84.6353 117.751 91.8263 114.207C106.208 107.119 118.806 95.9296 129.251 83.3724C139.486 71.0664 147.753 56.9744 153.632 41.7663C155.128 37.8596 156.493 33.8971 157.674 29.8788C158.645 26.5581 159.511 23.2374 159.642 19.7493C159.852 14.1405 157.726 7.08052 151.244 7.55491C147.622 7.80605 144.525 10.4012 141.822 12.7452C138.751 15.3683 135.838 18.1867 133.109 21.2004C127.703 27.0883 122.952 33.6459 118.911 40.7059C114.895 47.7379 111.615 55.2722 109.2 63.0856C108.019 66.9364 107.022 70.8431 106.261 74.8056C105.526 78.7402 105.159 82.9259 106.996 86.6093C109.935 92.4694 116.759 94.7576 122.559 95.3715C130.038 96.1807 137.859 94.925 145.05 92.6926C160.141 88.0325 173.473 78.517 185.572 68.1363C191.687 62.8902 197.539 57.3372 203.339 51.7283C203.103 51.6167 202.893 51.533 202.657 51.4213C201.843 62.0531 215.438 64.7599 222.839 64.9831C238.848 65.4575 254.883 65.7086 270.919 66.0993C280.026 66.3225 289.106 66.5179 298.213 66.7411C298.712 66.7411 298.712 65.904 298.213 65.904C283.07 65.5691 267.953 65.2063 252.81 64.8715C245.199 64.704 237.588 64.5087 229.951 64.3413C224.23 64.2018 218.509 64.3692 212.971 62.5275C208.116 60.9369 202.946 57.5604 203.418 51.4492C203.444 51.0586 202.972 50.919 202.736 51.1423C181.268 71.9035 155.469 96.0133 124.474 94.6739C118.359 94.4227 110.722 92.3857 107.599 86.1908C105.552 82.0888 106.444 77.317 107.363 72.9918C108.15 69.2246 109.148 65.5412 110.329 61.8857C115.184 46.9287 123.188 33.1157 133.555 21.8143C136.18 18.9401 138.988 16.2333 141.901 13.694C144.998 11.0151 149.118 7.41538 153.422 8.6711C159.642 10.457 159.196 19.6098 158.094 24.828C156.467 32.446 153.58 39.9803 150.509 47.0403C147.465 54.0723 143.869 60.8532 139.827 67.2992C131.482 80.5261 121.115 92.3577 109.174 102.013C96.944 111.863 82.1158 119.705 66.5266 120.318C62.7211 120.458 58.9157 120.179 55.189 119.342C51.4622 118.505 47.2894 117.333 44.2712 114.682C37.9988 109.156 41.7518 98.8875 43.7988 92.0508C48.0767 77.7914 54.5853 64.2855 62.8261 52.1748C71.2768 39.8966 81.4072 29.0416 92.9023 20.1679C98.5974 15.7589 104.634 11.8243 110.959 8.44786C118.464 4.42956 126.627 0.969361 135.156 0.801932C142.347 0.662407 149.8 3.25756 154.866 8.86643C160.823 15.5078 160.744 24.6048 159.353 33.1157C157.044 47.2635 152.451 60.9648 146.047 73.6057C133.266 98.8317 113.268 119.928 89.3068 133.099C76.1846 140.298 61.6713 145.293 46.9219 146.688C38.6549 147.47 30.2567 147.051 22.1734 144.903C14.9824 142.977 6.13797 139.74 2.6212 132.122C0.757841 128.048 0.705352 123.332 0.862819 118.895C0.994041 114.793 1.36146 110.663 1.9126 106.617C3.04111 98.5805 4.95696 90.6556 7.66015 83.0375C12.9615 67.9689 21.281 53.2352 32.3037 42.1011C37.054 37.3015 45.0323 31.8879 51.3573 36.6597C51.7509 36.9387 52.1446 36.2132 51.7509 35.9062Z" fill="#FF9D6F"/>
</svg>
