<svg width="27" height="27" viewBox="0 0 27 27" fill="none" xmlns="http://www.w3.org/2000/svg">
<path d="M11.8565 1.49057C12.1502 -0.38414 14.8498 -0.38414 15.1435 1.49057V1.49057C15.3668 2.91622 17.1752 3.40078 18.0814 2.2778V2.2778C19.2731 0.801102 21.611 2.15086 20.928 3.92126V3.92126C20.4086 5.26758 21.7324 6.59142 23.0787 6.07202V6.07202C24.8491 5.389 26.1989 7.72686 24.7222 8.91856V8.91856C23.5992 9.8248 24.0838 11.6332 25.5094 11.8565V11.8565C27.3841 12.1502 27.3841 14.8498 25.5094 15.1435V15.1435C24.0838 15.3668 23.5992 17.1752 24.7222 18.0814V18.0814C26.1989 19.2731 24.8491 21.611 23.0787 20.928V20.928C21.7324 20.4086 20.4086 21.7324 20.928 23.0787V23.0787C21.611 24.8491 19.2731 26.1989 18.0814 24.7222V24.7222C17.1752 23.5992 15.3668 24.0838 15.1435 25.5094V25.5094C14.8498 27.3841 12.1502 27.3841 11.8565 25.5094V25.5094C11.6332 24.0838 9.8248 23.5992 8.91856 24.7222V24.7222C7.72686 26.1989 5.389 24.8491 6.07202 23.0787V23.0787C6.59142 21.7324 5.26758 20.4086 3.92126 20.928V20.928C2.15086 21.611 0.801102 19.2731 2.2778 18.0814V18.0814C3.40078 17.1752 2.91622 15.3668 1.49057 15.1435V15.1435C-0.38414 14.8498 -0.38414 12.1502 1.49057 11.8565V11.8565C2.91622 11.6332 3.40078 9.8248 2.2778 8.91856V8.91856C0.801102 7.72686 2.15086 5.389 3.92126 6.07202V6.07202C5.26758 6.59142 6.59142 5.26758 6.07202 3.92126V3.92126C5.389 2.15086 7.72686 0.801102 8.91856 2.2778V2.2778C9.8248 3.40078 11.6332 2.91622 11.8565 1.49057V1.49057Z" fill="url(#paint0_linear)"/>
<defs>
<linearGradient id="paint0_linear" x1="2.65625" y1="9.45" x2="40.5883" y2="21.2482" gradientUnits="userSpaceOnUse">
<stop stop-color="#FF6644"/>
<stop offset="1" stop-color="#FF9D6F"/>
</linearGradient>
</defs>
</svg>
