<svg width="48" height="36" viewBox="0 0 48 36" fill="none" xmlns="http://www.w3.org/2000/svg">
<path d="M13.3337 7.23999C15.7337 4.67999 19.2537 2.75999 23.0937 1.47999V0.679993C17.1737 1.31999 11.5737 3.55999 7.25371 7.39999C2.61371 11.4 0.0537109 17 0.0537109 22.76C0.0537109 26.12 0.853711 29.32 2.61371 31.72C4.69371 34.28 7.41371 35.72 10.7737 35.72C13.4937 35.72 16.0537 34.76 17.8137 33C19.7337 31.24 20.6937 28.68 20.6937 25.96C20.6937 23.56 19.8937 21.48 18.4537 20.04C17.0137 18.6 14.9337 17.48 12.8537 17H8.21371C8.69371 13.32 10.2937 9.96 13.3337 7.23999ZM38.1337 7.23999C40.5337 4.67999 44.0537 2.75999 47.8937 1.47999V0.679993C41.9737 1.31999 36.3737 3.55999 32.0537 7.39999C27.4137 11.4 24.8537 17 24.8537 22.76C24.8537 26.12 25.6537 29.32 27.4137 31.72C29.4937 34.28 32.2137 35.72 35.5737 35.72C38.2937 35.72 40.8537 34.76 42.6137 33C44.5337 31.24 45.4937 28.68 45.4937 25.96C45.4937 23.56 44.6937 21.48 43.2537 20.04C41.8137 18.6 39.7337 17.48 37.6537 17H33.0137C33.4937 13.32 35.0937 9.96 38.1337 7.23999Z" fill="#000648"/>
</svg>
